<?xml version="1.0" encoding="utf-8"?>
<!-- Generator: Adobe Illustrator 17.0.0, SVG Export Plug-In . SVG Version: 6.00 Build 0)  -->
<!DOCTYPE svg PUBLIC "-//W3C//DTD SVG 1.1//EN" "http://www.w3.org/Graphics/SVG/1.1/DTD/svg11.dtd">
<svg version="1.1" id="Layer_1" xmlns="http://www.w3.org/2000/svg" xmlns:xlink="http://www.w3.org/1999/xlink" x="0px" y="0px"
	 width="700px" height="700px" viewBox="0 0 700 700" enable-background="new 0 0 700 700" xml:space="preserve">
<g>
	<g>
		<g>
			<g>
				<g>
					<path fill="#010101" d="M648.932,345.031c11.857,0.834,20.779,10.907,19.936,22.517c-0.842,11.618-11.131,20.369-22.979,19.531
						c11.483,2.451,18.776,13.539,16.283,24.782c-2.492,11.252-13.812,18.398-25.287,15.956
						c11.131,4.068,16.773,16.208,12.635,27.106c-4.152,10.898-16.546,16.449-27.667,12.372c10.357,5.567,14.156,18.301,8.496,28.45
						c-5.673,10.149-18.664,13.879-29.039,8.312c9.429,6.923,11.345,20.015,4.281,29.242c-7.056,9.23-20.422,11.109-29.838,4.194
						c8.367,8.187,8.371,21.455,0.013,29.663c-8.341,8.187-21.891,8.195-30.254,0.009c7.117,9.294,5.2,22.474-4.289,29.465
						c-9.489,6.978-22.949,5.087-30.065-4.203c5.681,10.165,1.865,22.934-8.509,28.492c-10.378,5.58-23.413,1.845-29.09-8.334
						c4.139,10.869-1.491,22.954-12.57,27.001c-11.087,4.059-23.413-1.461-27.556-12.317c2.51,11.37-4.856,22.579-16.468,25.031
						c-11.599,2.464-23.043-4.746-25.553-16.124c0.833,11.526-8.036,21.539-19.795,22.352c-11.762,0.8-21.969-7.887-22.802-19.409
						c-0.838,11.606-11.127,20.356-22.974,19.535c-11.848-0.825-20.768-10.911-19.932-22.521
						c-2.486,11.256-13.8,18.411-25.291,15.96c-11.479-2.442-18.769-13.53-16.279-24.782c-4.152,10.911-16.535,16.449-27.661,12.368
						c-11.124-4.064-16.786-16.204-12.63-27.094c-5.677,10.149-18.668,13.871-29.03,8.312c-10.355-5.55-14.156-18.284-8.488-28.441
						c-7.063,9.231-20.419,11.109-29.844,4.182c-9.416-6.915-11.337-19.994-4.274-29.233c-8.35,8.199-21.894,8.207-30.259,0.021
						c-8.356-8.186-8.371-21.464-0.022-29.65c-9.495,6.977-22.949,5.099-30.063-4.203c-7.125-9.294-5.2-22.487,4.274-29.473
						c-10.379,5.579-23.396,1.844-29.079-8.334c-5.683-10.17-1.874-22.934,8.505-28.492c-11.075,4.055-23.415-1.461-27.551-12.33
						c-4.134-10.848,1.485-22.934,12.57-26.989c-11.597,2.459-23.037-4.767-25.549-16.137c-2.512-11.365,4.852-22.579,16.464-25.039
						c-11.76,0.812-21.973-7.875-22.809-19.401c-0.829-11.534,8.036-21.526,19.809-22.348
						c-11.853-0.825-20.776-10.902-19.936-22.508c0.84-11.61,11.128-20.352,22.979-19.535c-11.483-2.43-18.765-13.526-16.283-24.769
						c2.49-11.26,13.815-18.398,25.289-15.956c-11.133-4.068-16.775-16.208-12.635-27.106c4.152-10.911,16.541-16.453,27.667-12.38
						c-10.366-5.559-14.16-18.293-8.488-28.441c5.662-10.153,18.657-13.88,29.025-8.313c-9.42-6.923-11.337-20.019-4.278-29.254
						c7.061-9.23,20.42-11.108,29.838-4.186c-8.361-8.182-8.371-21.459-0.015-29.65c8.35-8.195,21.894-8.203,30.259-0.017
						c-7.121-9.303-5.194-22.487,4.289-29.465c9.485-6.978,22.949-5.104,30.07,4.194c-5.686-10.174-1.874-22.929,8.509-28.492
						c10.372-5.571,23.404-1.836,29.083,8.325c-4.141-10.856,1.495-22.942,12.57-26.997c11.09-4.047,23.415,1.466,27.556,12.318
						c-2.512-11.357,4.858-22.58,16.455-25.039c11.605-2.451,23.054,4.767,25.555,16.132c-0.821-11.525,8.034-21.527,19.81-22.339
						c11.758-0.805,21.969,7.879,22.794,19.4c0.842-11.61,11.135-20.348,22.97-19.527c11.857,0.825,20.779,10.902,19.94,22.52
						c2.489-11.256,13.808-18.398,25.291-15.96c11.479,2.438,18.771,13.526,16.279,24.782c4.143-10.907,16.537-16.448,27.659-12.38
						c11.139,4.068,16.786,16.208,12.635,27.107c5.664-10.157,18.668-13.876,29.025-8.321c10.357,5.558,14.169,18.293,8.492,28.445
						c7.061-9.235,20.417-11.104,29.842-4.19c9.42,6.914,11.337,20.002,4.272,29.233c8.355-8.187,21.909-8.195,30.263-0.009
						c8.363,8.178,8.376,21.451,0.017,29.65c9.497-6.978,22.957-5.1,30.074,4.194c7.117,9.303,5.2,22.492-4.293,29.461
						c10.387-5.563,23.408-1.828,29.09,8.346c5.682,10.165,1.874,22.934-8.505,28.5c11.083-4.051,23.417,1.461,27.552,12.317
						c4.143,10.86-1.496,22.946-12.57,26.993c11.599-2.451,23.043,4.767,25.549,16.132c2.51,11.37-4.852,22.588-16.464,25.043
						c11.771-0.809,21.973,7.879,22.798,19.396C669.573,334.226,660.703,344.227,648.932,345.031z"/>
				</g>
			</g>
		</g>
	</g>
	<g>
		<g>
			<g>
				<path fill="#FFFFFF" d="M594.946,342.235c0,134.56-111.314,243.634-248.637,243.634c-137.318,0-248.637-109.074-248.637-243.634
					S208.991,98.601,346.309,98.601C483.632,98.601,594.946,207.675,594.946,342.235z"/>
			</g>
		</g>
	</g>
	<g>
		<g>
			<g>
				<path fill="#FFFFFF" d="M349.429,626.834c-160.757,0-291.543-128.155-291.543-285.677S188.672,55.48,349.429,55.48
					s291.543,128.155,291.543,285.677S510.187,626.834,349.429,626.834z M349.429,59.792
					c-158.331,0-287.143,126.222-287.143,281.365s128.812,281.365,287.143,281.365c158.333,0,287.143-126.222,287.143-281.365
					S507.763,59.792,349.429,59.792z"/>
			</g>
		</g>
	</g>
	<g>
		<g>
			<g>
				<path fill="#030303" d="M346.309,476.988c-77.041,0-139.721-61.418-139.721-136.909s62.679-136.909,139.721-136.909
					c77.042,0,139.721,61.418,139.721,136.909S423.351,476.988,346.309,476.988z M346.309,205.325
					c-75.829,0-137.52,60.449-137.52,134.753c0,74.304,61.691,134.753,137.52,134.753c75.83,0,137.52-60.45,137.52-134.753
					C483.83,265.775,422.139,205.325,346.309,205.325z"/>
			</g>
		</g>
	</g>
	<g>
		<g>
			<g>
				<path fill="#010101" d="M465.69,368.394c-2.411-4.43-6.571-8.098-11.728-10.325c-3.3-1.419-6.85-2.173-10.277-2.173
					c-6.193,0-11.483,2.426-14.599,6.447l-0.022-0.088l-58.706-35.053l67.553-55.742l-80.447,48.036l-77.405-46.212l64.991,53.623
					l-55.406,33.082c-3.075-4.186-8.473-6.708-14.807-6.708c-3.425,0-6.977,0.754-10.273,2.173
					c-5.161,2.228-9.328,5.9-11.728,10.321c-2.478,4.56-2.802,9.386-0.92,13.593c-5.441,3.095-10.305,4.152-14.459,3.074
					c-5.179-1.343-7.559-5.634-7.589-5.676l-1.646,0.846l-1.65,0.855c0.123,0.232,3.101,5.693,9.863,7.483
					c1.407,0.37,2.862,0.556,4.364,0.556c4.039,0,8.421-1.36,13.092-4.03c3.143,3.824,8.378,6.089,14.317,6.089
					c3.425,0,6.979-0.749,10.279-2.177c5.162-2.228,9.315-5.887,11.722-10.313c2.241-4.131,2.705-8.468,1.384-12.372l42.947-18.326
					l14.9-0.914l8.444-6.969l10.654,8.797l14.889,0.906l43.676,18.646c-1.523,4.021-1.124,8.548,1.208,12.844
					c2.4,4.43,6.567,8.085,11.728,10.321c3.296,1.423,6.848,2.177,10.273,2.177c7.495,0,13.737-3.517,16.283-9.184
					C468.488,377.797,468.168,372.963,465.69,368.394z M286.92,374.361c-2.011,3.702-5.537,6.792-9.934,8.691
					c-2.828,1.221-5.866,1.861-8.778,1.861c-5.176,0-9.661-2.025-11.984-5.424c-0.346-0.497-0.645-1.023-0.889-1.57
					c-1.427-3.167-1.143-6.864,0.784-10.427c2.018-3.714,5.546-6.797,9.945-8.7c2.827-1.221,5.862-1.861,8.773-1.861
					c5.995,0,10.931,2.678,12.873,6.999c0.058,0.11,0.088,0.219,0.136,0.333l-0.329,1.192l0.657-0.291
					C289.037,368.036,288.611,371.249,286.92,374.361z M357.586,331.817c-1.996,0-3.629-1.592-3.629-3.554
					c0-1.962,1.633-3.554,3.629-3.554c2.012,0,3.634,1.592,3.634,3.554C361.22,330.225,359.598,331.817,357.586,331.817z
					 M463.187,380.53c-1.945,4.321-6.869,6.999-12.875,6.999c-2.909,0-5.944-0.64-8.771-1.865c-4.403-1.899-7.929-4.977-9.94-8.691
					c-1.938-3.558-2.215-7.264-0.797-10.431c1.945-4.312,6.885-6.995,12.882-6.995c2.916,0,5.947,0.64,8.775,1.866
					c4.396,1.899,7.929,4.986,9.934,8.691C464.332,373.666,464.613,377.367,463.187,380.53z"/>
			</g>
		</g>
	</g>
	<g>
		<g>
			<g>
				<path fill="#010101" d="M204.809,177.659l1.906,1.971l-0.505,0.467l-1.461-1.512l-6.715,6.224
					c-2.183,2.017-3.341,4.771-3.421,7.525c-0.075,2.754,1.113,5.765,2.987,7.706c7.838,8.127,15.46,16.027,23.303,24.15
					c1.873,1.941,4.905,3.306,7.716,3.385c2.809,0.076,5.649-0.935,7.83-2.956l8.932-8.275l-14.953-15.501l-7.589,7.028l1.431,1.486
					l-0.473,0.434c-1.111-1.15-2.222-2.304-3.333-3.457l0.47-0.434l1.431,1.482l8.09-7.5l15.905,16.486
					c-2.518,2.333-6.917,6.409-9.435,8.738c-4.699,4.358-12.113,4.059-16.496-0.48c-7.841-8.127-15.46-16.023-23.303-24.155
					c-4.351-4.506-4.239-11.77,0.462-16.128C200.108,182.013,202.289,179.992,204.809,177.659z"/>
			</g>
		</g>
		<g>
			<g>
				<path fill="#010101" d="M245.831,215.963l1.781-1.137l-30.506-45.905l-1.781,1.137l-0.352-0.535
					c6.659-4.245,13.282-8.469,19.938-12.722l1.515,2.274l-0.58,0.375l-1.16-1.748l-17.035,10.873l18.073,27.199l13.9-8.868
					l-1.132-1.705l0.54-0.345c0.885,1.326,1.766,2.653,2.649,3.98l-0.541,0.349l-1.16-1.743l-13.898,8.869l12.076,18.17
					l17.033-10.869l-1.134-1.705l0.583-0.375l1.513,2.278c-6.661,4.249-13.282,8.473-19.938,12.722L245.831,215.963z"/>
			</g>
		</g>
		<g>
			<g>
				<path fill="#010101" d="M244.108,152.565l-0.245-0.589c1.496-0.598,2.993-1.2,4.487-1.798l0.245,0.586l-1.581,0.636
					l41.961,41.125l-20.714-49.64l-1.923,0.775l-0.247-0.589c1.498-0.598,2.993-1.204,4.491-1.798l0.247,0.585l-1.927,0.771
					l21.152,50.688l1.925-0.771l0.262,0.627c-1.498,0.598-2.993,1.2-4.489,1.798l-0.262-0.632l1.708-0.682l-42.23-41.411
					l20.856,49.973l1.923-0.766l0.262,0.623c-1.496,0.606-2.993,1.2-4.489,1.806l-0.264-0.632l1.97-0.787l-21.152-50.688
					L244.108,152.565z"/>
			</g>
		</g>
		<g>
			<g>
				<path fill="#010101" d="M303.461,190.402l2.086-0.409l-10.961-53.725l-13.548,2.653l0.415,2.047l-0.679,0.126l-0.543-2.661
					l29.135-5.706l0.546,2.661l-0.681,0.139l-0.417-2.043l-13.548,2.653l10.961,53.725l2.039-0.4l0.136,0.67l-4.802,0.939
					L303.461,190.402z"/>
			</g>
		</g>
		<g>
			<g>
				<path fill="#010101" d="M322.94,131.695l0.026,0.627l-2.118,0.093l2.398,54.735l22.85-0.96l-0.086-2.038l0.649-0.025
					l0.112,2.712c-7.89,0.332-18.372,0.779-26.266,1.107l-0.026-0.678l2.076-0.084l-2.402-54.74l-2.08,0.088l-0.026-0.636
					L322.94,131.695z"/>
			</g>
		</g>
		<g>
			<g>
				<path fill="#010101" d="M346.976,186.098l2.115,0.177l4.839-54.571l-2.115-0.181l0.051-0.632
					c7.92,0.674,15.789,1.339,23.705,2.017l-0.24,2.708l-0.688-0.059l0.185-2.076l-20.254-1.723l-2.862,32.337l16.52,1.406
					l0.18-2.03l0.645,0.055c-0.142,1.579-0.284,3.159-0.421,4.733l-0.645-0.055l0.18-2.072l-16.52-1.407l-1.916,21.603l20.25,1.727
					l0.18-2.034l0.692,0.059l-0.237,2.704c-7.916-0.67-15.789-1.344-23.705-2.017L346.976,186.098z"/>
			</g>
		</g>
		<g>
			<g>
				<path fill="#010101" d="M374.05,188.174l2.037,0.421l-0.142,0.661c-1.586-0.324-3.167-0.649-4.753-0.973l0.142-0.665
					l2.037,0.417c3.816-17.876,7.624-35.739,11.449-53.657l-2.037-0.417l0.133-0.619c1.582,0.32,3.167,0.649,4.749,0.973
					l-0.129,0.619l-1.676-0.345l8.578,23.557l17.491-18.217l-1.633-0.333l0.137-0.619c1.582,0.324,3.163,0.649,4.749,0.973
					l-0.133,0.623l-2.037-0.417c-3.825,17.909-7.632,35.785-11.449,53.653l2.037,0.417l-0.138,0.665
					c-1.586-0.32-3.172-0.649-4.753-0.973l0.137-0.67l2.037,0.425l11.32-53.038l-18.033,18.752l-8.806-24.247L374.05,188.174z"/>
			</g>
		</g>
		<g>
			<g>
				<path fill="#010101" d="M403.282,194.431l1.986,0.746l20.121-51.139l-1.977-0.749l0.232-0.594
					c7.417,2.805,14.792,5.592,22.21,8.397l-0.997,2.535l-0.645-0.248l0.765-1.941l-18.978-7.167l-11.93,30.303l15.488,5.849
					l0.748-1.903l0.602,0.232c-0.58,1.478-1.16,2.96-1.745,4.438l-0.606-0.227l0.769-1.95l-15.488-5.849l-7.968,20.247l18.978,7.171
					l0.748-1.903l0.649,0.244l-0.997,2.535c-7.422-2.8-14.796-5.588-22.214-8.393L403.282,194.431z"/>
			</g>
		</g>
		<g>
			<g>
				<path fill="#010101" d="M454.327,155.643l0.335-0.547c1.384,0.825,2.768,1.642,4.152,2.463l-0.335,0.539l-1.461-0.863
					l-8.668,57.527l28.312-45.892l-1.783-1.057l0.339-0.539c1.38,0.817,2.763,1.638,4.147,2.459l-0.335,0.539l-1.775-1.053
					l-28.909,46.861l1.779,1.057l-0.361,0.581c-1.384-0.817-2.768-1.642-4.151-2.455l0.361-0.586l1.582,0.939l8.741-57.915
					l-28.505,46.208l1.779,1.048l-0.357,0.586c-1.384-0.817-2.768-1.638-4.152-2.459l0.357-0.581l1.818,1.078l28.909-46.865
					L454.327,155.643z"/>
			</g>
		</g>
		<g>
			<g>
				<path fill="#010101" d="M481.69,182.068l7.284-4.632l0.533,0.429l-7.28,4.632L481.69,182.068z"/>
			</g>
		</g>
		<g>
			<g>
				<path fill="#010101" d="M508.846,211.772c4.152-4.005,4.298-10.658,0.387-14.814c-4.044-4.295-10.963-4.569-15.308-0.64
					c-10.761,9.732,1.061,28.964-10.039,38.935c-4.581,4.144-11.723,3.832-15.995-0.442c-4.392-4.405-4.358-11.639,0.167-15.977
					l-1.41-1.495l0.511-0.459l3.258,3.453l-0.516,0.467l-1.405-1.499c-5.583,5.419-3.623,14.911,3.855,17.577
					c3.704,1.331,8.011,0.636,11.071-2.127c10.786-9.694-1.032-28.93,10.065-38.902c7.4-6.687,19.665-1.272,19.253,8.772
					c-0.121,2.813-1.277,5.579-3.421,7.647l1.41,1.495l-0.511,0.463l-3.262-3.461l0.516-0.463L508.846,211.772z"/>
			</g>
		</g>
	</g>
	<g>
		<g>
			<g>
				<ellipse fill="#010101" cx="530.832" cy="319.596" rx="11.002" ry="10.78"/>
			</g>
		</g>
	</g>
	<g>
		<g>
			<g>
				<ellipse fill="#010101" cx="154.576" cy="319.596" rx="11.002" ry="10.78"/>
			</g>
		</g>
	</g>
	<g>
		<path fill="#010101" d="M217.945,524.531c-0.144,0.147-0.264,0.172-0.363,0.076l-9.541-9.088c-0.161-0.151-0.18-0.286-0.06-0.408
			l0.593-0.598c0.118-0.122,0.271-0.092,0.455,0.085l2.682,2.552c0.221,0.21,0.417,0.282,0.587,0.206
			c0.168-0.072,0.582-0.43,1.242-1.069c1.33-1.293,4.644-4.611,9.94-9.951c0.215-0.215,0.217-0.426,0.009-0.624l-12.981-12.364
			c-0.221-0.21-0.464-0.185-0.729,0.085c-3.88,3.912-6.253,6.325-7.115,7.243c-2.598,2.767-3.657,4.375-3.176,4.834l3.107,2.961
			c0.097,0.093,0.075,0.21-0.069,0.358l-0.557,0.56c-0.12,0.122-0.23,0.135-0.329,0.042l-9.596-9.142
			c-0.148-0.139-0.161-0.27-0.04-0.392l0.556-0.56c0.144-0.147,0.29-0.147,0.437-0.008l2.312,2.202
			c0.297,0.282,0.531,0.387,0.707,0.32c0.174-0.067,0.587-0.43,1.234-1.078c0.204-0.206,1.824-1.865,4.861-4.973
			c3.036-3.112,4.718-4.83,5.047-5.163c0.331-0.332,1.618-1.655,3.864-3.967c2.245-2.316,3.447-3.55,3.603-3.706
			c2.43-2.451,3.444-3.87,3.036-4.257l-2.606-2.484c-0.148-0.143-0.162-0.274-0.043-0.392l0.593-0.598
			c0.12-0.122,0.253-0.114,0.402,0.029l9.431,8.982c0.148,0.139,0.131,0.299-0.047,0.48l-0.503,0.51
			c-0.12,0.122-0.253,0.11-0.402-0.029l-2.774-2.645c-0.284-0.27-0.469-0.404-0.552-0.4c-0.086,0-0.25,0.122-0.488,0.362
			c-6.386,6.439-9.291,9.344-8.717,8.717c-0.262,0.291-0.303,0.522-0.116,0.699l12.978,12.359c0.211,0.202,0.43,0.185,0.657-0.042
			c0.084-0.084,1.032-1.057,2.847-2.91c1.814-1.853,2.813-2.872,2.991-3.053c2.241-2.257,3.12-3.617,2.641-4.072l-2.849-2.712
			c-0.122-0.118-0.112-0.248,0.033-0.396l0.556-0.56c0.121-0.122,0.267-0.101,0.438,0.063l9.468,9.016
			c0.161,0.156,0.151,0.32-0.03,0.501l-0.466,0.472c-0.144,0.147-0.297,0.143-0.455-0.009l-2.424-2.308
			c-0.356-0.341-0.595-0.509-0.718-0.509c-0.122,0-0.344,0.164-0.668,0.492l-9.758,9.837c-4.852,4.893-7.65,7.735-8.391,8.531
			c-2.346,2.535-3.322,3.992-2.926,4.367l2.699,2.573c0.148,0.139,0.151,0.282,0.007,0.425L217.945,524.531z"/>
		<path fill="#010101" d="M253.761,545.405c-0.086,0.147-0.172,0.194-0.262,0.143l-10.338-5.748
			c-0.151-0.084-0.174-0.21-0.073-0.387l0.344-0.594c0.118-0.207,0.253-0.266,0.402-0.181l3.073,1.705
			c0.24,0.135,0.412,0.055,0.522-0.232c0.136-0.543,0.505-2.358,1.105-5.445c0.599-3.083,0.911-4.746,0.932-4.986
			c0.049-0.358-0.024-0.594-0.217-0.699l-10.832-6.026c-0.153-0.042-0.316-0.017-0.49,0.08c-0.438,0.278-1.334,1.006-2.686,2.182
			c-1.354,1.175-2.241,1.992-2.667,2.451c-0.918,1.04-1.444,1.676-1.579,1.912c-0.561,0.969-0.722,1.516-0.481,1.651l3.408,1.895
			c0.18,0.101,0.21,0.253,0.092,0.455l-0.37,0.64c-0.086,0.147-0.202,0.177-0.352,0.093l-9.059-5.036
			c-0.15-0.085-0.183-0.198-0.097-0.345l0.419-0.724c0.084-0.147,0.187-0.185,0.307-0.118l1.927,1.069
			c0.329,0.185,1.173-0.257,2.531-1.322c1.358-1.065,5.331-4.114,11.921-9.146c4.18-3.158,9.251-6.982,15.211-11.471
			c0.428-0.362,0.739-0.526,0.939-0.497c0.485,0.118,1.13,0.232,1.931,0.35c0.131,0.013,0.206,0.156,0.226,0.43
			c0.019,0.273-0.17,0.463-0.567,0.573c-0.711,0.202-1.19,0.518-1.438,0.943c-0.268,0.43-0.481,1.04-0.64,1.824
			c-0.464,2.645-1.388,7.567-2.77,14.768c-1.384,7.201-2.177,11.917-2.381,14.149c-0.165,2.093-0.077,3.238,0.267,3.428l2.108,1.175
			c0.12,0.063,0.12,0.202,0.002,0.404L253.761,545.405z M249.912,526.708c0.395-2.084,0.844-4.363,1.347-6.835
			c0.503-2.472,1.032-5.04,1.592-7.715c0.065-0.215,0.073-0.366,0.024-0.451c-0.095,0.025-0.236,0.101-0.428,0.228
			c-4.465,3.445-7.647,5.874-9.549,7.298c-1.899,1.423-2.868,2.164-2.901,2.223c-0.051,0.084-0.008,0.169,0.125,0.244l9.486,5.272
			C249.757,527.057,249.86,526.969,249.912,526.708z"/>
		<path fill="#010101" d="M272.45,551.599c-0.045,0.126-0.116,0.173-0.215,0.139l-11.777-4.118c-0.146-0.05-0.225-0.105-0.24-0.164
			c-0.015-0.059-0.011-0.122,0.011-0.185l0.268-0.737c0.054-0.143,0.107-0.219,0.165-0.223c0.056-0.009,0.118,0,0.183,0.021
			l3.303,1.154c0.226,0.08,0.423-0.109,0.591-0.568l8.913-24.622c1.091-2.998,1.354-4.598,0.786-4.796l-3.084-1.078
			c-0.228-0.08-0.312-0.198-0.253-0.358l0.303-0.833c0.048-0.126,0.151-0.16,0.312-0.106l11.78,4.118
			c0.146,0.055,0.195,0.143,0.148,0.27l-0.32,0.88c-0.045,0.126-0.159,0.16-0.335,0.097l-3.425-1.196
			c-0.293-0.105-0.499,0.013-0.619,0.345c-5.279,14.393-8.004,21.83-8.178,22.306c-0.855,2.345-1.334,3.689-1.439,4.03
			c-0.604,2.005-0.638,3.104-0.103,3.289l3.425,1.196c0.129,0.046,0.169,0.135,0.125,0.261L272.45,551.599z"/>
		<path fill="#010101" d="M312.52,559.958c-0.039,0.198-0.125,0.286-0.26,0.261l-8.242-1.478c-0.187-0.034-0.378-0.173-0.578-0.413
			c-0.541-0.661-1.465-2.266-2.772-4.813c-0.688-1.373-1.375-2.746-2.061-4.119c-0.737-1.672-1.708-4.245-2.911-7.715
			c-0.067-0.303-0.174-0.467-0.327-0.492c-0.795-0.143-2.181-0.497-4.156-1.053c-0.256-0.135-0.406-0.076-0.451,0.173
			c-0.06,0.316-0.247,1.364-0.563,3.15c-0.316,1.786-0.657,3.664-1.025,5.635c-0.677,3.63-0.636,5.512,0.125,5.647l4.514,0.809
			c0.17,0.03,0.239,0.131,0.209,0.295l-0.155,0.821c-0.03,0.164-0.114,0.236-0.249,0.211l-13.443-2.409
			c-0.153-0.03-0.241-0.068-0.264-0.126c-0.026-0.055-0.03-0.114-0.019-0.181l0.144-0.771c0.028-0.152,0.071-0.232,0.125-0.249
			c0.056-0.017,0.127-0.017,0.21,0l3.322,0.594c0.271,0.051,0.455-0.181,0.55-0.695l2.48-13.273l1.921-10.288
			c0.817-4.565,0.946-6.898,0.387-6.994l-3.221-0.577c-0.168-0.034-0.241-0.114-0.215-0.245l0.169-0.922
			c0.026-0.131,0.106-0.185,0.241-0.16l7.585,1.356c0.236,0.047,1.21,0.185,2.922,0.421c1.711,0.24,2.669,0.379,2.871,0.413
			c1.1,0.198,2.157,0.476,3.176,0.83c2.265,0.779,3.984,1.971,5.153,3.567c1.369,1.84,1.835,3.933,1.395,6.287
			c-0.5,2.683-1.723,4.742-3.668,6.174c-1.197,0.884-2.997,1.495-5.402,1.832c-0.148,0.042-0.217,0.135-0.209,0.27
			c0.389,2.042,1.648,4.792,3.78,8.258c1.113,1.806,1.927,3.112,2.443,3.904c0.915,1.364,1.717,2.409,2.405,3.129
			c0.937,0.972,2.217,1.604,3.84,1.895c0.271,0.05,0.393,0.139,0.37,0.274L312.52,559.958z M304.649,534.018
			c0.413-2.206,0.004-4.135-1.225-5.795c-1.721-2.295-4.551-3.798-8.492-4.501c-0.573-0.105-0.909-0.047-1.003,0.177
			c-0.888,4.758-1.474,7.719-1.762,8.881l-1.057,5.668c-0.034,0.181,0.062,0.316,0.29,0.408c0.376,0.139,1.444,0.362,3.201,0.678
			c0.727,0.13,1.556,0.21,2.486,0.24c0.928,0.03,1.351,0.038,1.266,0.021C301.88,539.539,303.979,537.611,304.649,534.018z"/>
		<path fill="#010101" d="M352.16,550.64c0.075,2.796-0.774,5.116-2.546,6.965c-1.891,1.937-4.684,2.956-8.378,3.049
			c-4.33,0.114-7.409-0.581-9.24-2.084c-0.211-0.177-0.323-0.522-0.338-1.027c-0.002-0.118-0.039-1.103-0.105-2.952
			c-0.066-1.853-0.103-2.847-0.107-2.981c-0.004-0.219,0.112-0.333,0.352-0.337l1.057-0.03c0.206-0.004,0.329,0.101,0.37,0.32
			c0.041,0.219,0.107,0.75,0.198,1.588c0.153,1.815,0.881,3.28,2.183,4.392c0.617,0.522,1.487,0.956,2.615,1.297
			c1.126,0.341,2.136,0.501,3.03,0.476c3.438-0.088,5.701-1.268,6.792-3.537c0.485-1.057,0.709-2.363,0.668-3.912
			c-0.039-1.377-0.561-2.552-1.566-3.52c-1.131-1.082-3.075-2.068-5.832-2.956c-3.122-0.998-5.353-2.025-6.687-3.087
			c-1.775-1.385-2.703-3.605-2.787-6.654c-0.077-2.859,1.043-5.31,3.361-7.34c1.764-1.562,4.115-2.384,7.052-2.46
			c1.942-0.05,3.756,0.223,5.441,0.821c1.074,0.375,1.869,0.775,2.379,1.2c0.245,0.164,0.389,0.387,0.432,0.67
			c0.223,1.276,0.363,2.99,0.423,5.146c0.009,0.354-0.038,0.531-0.142,0.535l-1.235,0.034c-0.123,0.004-0.211-0.097-0.267-0.299
			c-0.116-0.484-0.256-1.12-0.412-1.908c-0.29-1.158-0.915-1.983-1.874-2.48c-1.762-0.931-3.778-1.368-6.045-1.31
			c-2.045,0.055-3.545,0.522-4.501,1.407c-1.008,0.922-1.48,2.51-1.421,4.763c0.039,1.381,0.552,2.573,1.543,3.575
			c0.477,0.493,1.395,1.011,2.75,1.545c1.128,0.413,2.256,0.83,3.387,1.255c2.243,0.884,3.565,1.432,3.964,1.638
			c1.309,0.657,2.422,1.461,3.341,2.417C351.381,546.285,352.094,548.214,352.16,550.64z"/>
		<path fill="#010101" d="M392.022,554.884c0.024,0.164-0.013,0.257-0.116,0.269l-11.756,1.718
			c-0.172,0.025-0.271-0.063-0.301-0.261l-0.103-0.674c-0.037-0.236,0.032-0.362,0.202-0.388l3.494-0.509
			c0.271-0.042,0.359-0.207,0.262-0.501c-0.234-0.51-1.085-2.16-2.553-4.952c-1.468-2.792-2.269-4.287-2.405-4.489
			c-0.187-0.316-0.389-0.455-0.61-0.421l-12.319,1.798c-0.148,0.055-0.26,0.177-0.337,0.358c-0.17,0.484-0.417,1.596-0.742,3.339
			c-0.327,1.743-0.511,2.922-0.556,3.542c-0.069,1.373-0.084,2.194-0.043,2.459c0.168,1.099,0.387,1.63,0.66,1.592l3.877-0.568
			c0.204-0.03,0.322,0.072,0.359,0.303l0.11,0.728c0.026,0.164-0.047,0.261-0.217,0.286l-10.303,1.504
			c-0.17,0.025-0.267-0.047-0.292-0.211l-0.125-0.825c-0.026-0.168,0.028-0.261,0.165-0.278l2.194-0.324
			c0.372-0.055,0.76-0.909,1.158-2.569c0.4-1.659,1.612-6.46,3.635-14.402c1.304-5.011,2.893-11.083,4.762-18.221
			c0.107-0.543,0.249-0.863,0.427-0.956c0.455-0.202,1.036-0.501,1.74-0.893c0.112-0.067,0.26,0,0.449,0.202
			c0.187,0.202,0.157,0.467-0.088,0.792c-0.432,0.589-0.61,1.128-0.537,1.613c0.058,0.501,0.273,1.108,0.642,1.819
			c1.298,2.366,3.668,6.801,7.108,13.307c3.44,6.506,5.782,10.696,7.024,12.575c1.186,1.752,1.977,2.598,2.368,2.543l2.398-0.349
			c0.136-0.021,0.221,0.084,0.256,0.32L392.022,554.884z M377.23,542.483c-0.999-1.878-2.078-3.946-3.238-6.195
			c-1.158-2.248-2.36-4.594-3.599-7.036c-0.084-0.206-0.172-0.329-0.264-0.367c-0.058,0.076-0.122,0.219-0.195,0.434
			c-1.349,5.411-2.325,9.248-2.926,11.517c-0.602,2.266-0.898,3.436-0.888,3.5c0.015,0.101,0.099,0.139,0.251,0.118l10.789-1.575
			C377.329,542.853,377.352,542.723,377.23,542.483z"/>
		<path fill="#010101" d="M422.324,542.453c0.045,0.143-0.058,0.733-0.312,1.76c-0.026,0.375-0.146,0.994-0.363,1.853
			c-0.071,0.232-0.181,0.371-0.329,0.417l-23.466,7.058c-0.195,0.063-0.32,0.013-0.37-0.151l-0.251-0.796
			c-0.049-0.16,0.007-0.265,0.172-0.316l3.696-1.112c0.297-0.088,0.391-0.303,0.286-0.64c-0.045-0.147-0.376-1.112-0.991-2.902
			c-0.615-1.79-1.857-5.786-3.728-11.989c-1.874-6.203-2.856-9.458-2.952-9.761c-1.074-3.432-1.934-5.049-2.574-4.855l-2.785,0.838
			c-0.23,0.067-0.376,0.008-0.436-0.185l-0.219-0.703c-0.06-0.194,0.008-0.32,0.204-0.379l13.335-4.013
			c0.165-0.047,0.266-0.009,0.307,0.122l0.264,0.842c0.052,0.164,0.011,0.265-0.12,0.303l-4.955,1.491
			c-0.247,0.076-0.359,0.232-0.337,0.472c0.021,0.24,1.171,4.194,3.447,11.863c2.153,7.209,3.384,11.315,3.698,12.313
			c1.164,3.718,2.183,5.449,3.055,5.184c5.308-1.596,8.346-2.544,9.113-2.847c2.499-0.981,4.381-2.173,5.651-3.575
			c0.318-0.362,0.518-0.552,0.599-0.577C422.163,542.23,422.283,542.323,422.324,542.453z"/>
		<path fill="#010101" d="M450.958,512.538c2.505,4.725,3.305,9.003,2.4,12.848c-0.309,1.352-0.619,2.375-0.932,3.066
			c-0.653,1.432-1.7,2.927-3.144,4.476c-1.156,1.255-2.879,2.464-5.165,3.63c-3.646,1.857-6.633,2.801-8.962,2.83
			c-1.691,0.025-3.266-0.244-4.729-0.809c-1.794-0.682-3.337-1.651-4.626-2.914c-1.553-1.503-3.116-3.735-4.686-6.695
			c-1.07-2.017-1.803-4.072-2.198-6.169c-0.464-2.48-0.421-4.788,0.129-6.927c0.55-2.144,1.814-4.325,3.793-6.548
			c1.397-1.567,3.169-2.897,5.32-3.992c3.264-1.663,5.961-2.552,8.088-2.67c2.389-0.135,4.525,0.257,6.407,1.179
			C445.96,505.442,448.73,508.339,450.958,512.538z M447.986,515.591c-1.143-2.152-2.394-3.908-3.754-5.264
			c-1.556-1.579-3.315-2.746-5.279-3.491c-1.796-0.678-3.642-0.943-5.537-0.796c-2.19,0.185-4.184,0.737-5.982,1.655
			c-2.334,1.188-3.825,2.413-4.474,3.672c-1.193,2.282-1.719,4.392-1.582,6.334c0.165,2.573,1.049,5.369,2.652,8.388
			c2.364,4.455,5.069,7.525,8.118,9.218c1.846,1.036,4.038,1.495,6.573,1.381c1.99-0.084,3.93-0.611,5.821-1.57
			c2.136-1.091,3.795-2.674,4.974-4.759c0.928-1.613,1.315-3.764,1.164-6.46C450.527,521.453,449.628,518.686,447.986,515.591z"/>
		<path fill="#010101" d="M472.762,474.761c0.136,0.151,0.136,0.286,0.007,0.396l-2.718,2.287c-0.275,0.232-0.26,0.518,0.043,0.863
			c0.088,0.101,1.603,1.852,4.538,5.255c2.937,3.403,4.527,5.238,4.768,5.512c0.241,0.278,2.217,2.582,5.929,6.919
			c3.711,4.338,5.668,6.62,5.87,6.852c0.527,0.598,0.712,0.964,0.554,1.099c-0.183,0.151-0.4,0.202-0.651,0.147
			c-2.553-0.56-9.949-2.03-22.186-4.404c-4.459-0.977-9.558-1.958-15.297-2.948c-0.318,0-0.395,0.156-0.236,0.467
			c0.105,0.198,2.063,2.624,5.873,7.281c3.868,4.695,6.311,7.622,7.329,8.785c2.98,3.398,4.815,4.809,5.507,4.228l2.6-2.194
			c0.131-0.109,0.241-0.109,0.331-0.008l0.621,0.707c0.09,0.106,0.084,0.198-0.022,0.286l-7.686,6.472
			c-0.17,0.139-0.288,0.173-0.354,0.097l-0.624-0.708c-0.111-0.131-0.081-0.265,0.086-0.408l2.407-2.025
			c0.208-0.173,0.23-0.358,0.06-0.548l-2.469-2.817c-0.662-0.754-3.249-3.895-7.766-9.42c-4.516-5.525-6.818-8.338-6.908-8.443
			c-2.071-2.362-3.936-2.846-5.593-1.453l-1.369,1.154c-0.105,0.088-0.213,0.067-0.324-0.059l-0.554-0.636
			c-0.112-0.126-0.103-0.244,0.028-0.354l6.18-5.205c0.17-0.143,0.404-0.16,0.698-0.055c0.299,0.105,2.639,0.64,7.027,1.596
			c4.388,0.96,6.846,1.482,7.377,1.571c6.259,1.348,12.8,2.67,19.624,3.962c0.084-0.004,0.155-0.029,0.206-0.072
			c0.09-0.08-0.007-0.307-0.294-0.686c-0.2-0.253-2.183-2.514-5.95-6.784c-3.775-4.283-5.823-6.59-6.137-6.923
			c-3.5-3.604-5.623-5.095-6.366-4.468l-2.68,2.253c-0.17,0.143-0.309,0.152-0.421,0.025l-0.554-0.632
			c-0.112-0.131-0.097-0.253,0.047-0.375l8.526-7.18c0.157-0.131,0.279-0.147,0.37-0.042L472.762,474.761z"/>
	</g>
	<g>
		<g>
			<g>
				<path fill-rule="evenodd" clip-rule="evenodd" fill="#010101" d="M394.334,395.235c-9.403,0.038-19.906,0.766-27.089,5.727
					c-5.969,4.131-7.738,6.911-11.21,8.944c0.028-0.299,0.022,0.169,0.08-0.122c0.116-0.792-0.572-1.642-1.335-1.764
					c-2.067,0.426-4.119,0.426-6.184,0c-0.656,0.101-1.206,0.741-1.277,1.428c-2.525-2.08-4.592-5.095-9.506-8.485
					c-7.177-4.961-17.68-5.689-27.083-5.727c-1.672,6.561-3.969,13.871-3.988,21.245c-0.015,7.315,1.962,13.433,3.741,19.817
					c9.326,0.316,19.668-0.733,27.279-5.344c2.862-1.743,4.901-3.583,6.799-5.272c0.739-1.916,13.638-1.537,15.944,0
					c1.904,1.689,3.937,3.529,6.799,5.272c7.605,4.611,17.953,5.66,27.272,5.344c1.786-6.384,3.756-12.503,3.748-19.817
					C398.297,409.106,396.006,401.796,394.334,395.235z"/>
			</g>
		</g>
	</g>
</g>
</svg>
