<?xml version="1.0" encoding="utf-8"?>
<!-- Generator: Adobe Illustrator 17.0.0, SVG Export Plug-In . SVG Version: 6.00 Build 0)  -->
<!DOCTYPE svg PUBLIC "-//W3C//DTD SVG 1.1//EN" "http://www.w3.org/Graphics/SVG/1.1/DTD/svg11.dtd">
<svg version="1.1" id="Layer_1" xmlns="http://www.w3.org/2000/svg" xmlns:xlink="http://www.w3.org/1999/xlink" x="0px" y="0px"
	 width="700px" height="700px" viewBox="0 0 700 700" enable-background="new 0 0 700 700" xml:space="preserve">
<g>
	<g>
		<g>
			<g>
				<path fill="#010101" d="M680.533,346.105c0,185.078-148.685,335.104-332.121,335.104
					c-183.417,0-332.112-150.026-332.112-335.104c0-185.069,148.695-335.099,332.112-335.099
					C531.848,11.005,680.533,161.036,680.533,346.105z"/>
			</g>
		</g>
	</g>
	<g>
		<g>
			<g>
				<path fill="#FFFFFF" d="M348.234,655.038c-171.1,0-310.302-139.203-310.302-310.303c0-171.11,139.203-310.317,310.302-310.317
					c171.11,0,310.317,139.207,310.317,310.317C658.551,515.835,519.344,655.038,348.234,655.038z M348.234,39.305
					c-168.409,0-305.416,137.016-305.416,305.43c0,168.409,137.007,305.416,305.416,305.416
					c168.413,0,305.43-137.007,305.43-305.416C653.664,176.322,516.648,39.305,348.234,39.305z"/>
			</g>
		</g>
	</g>
	<g>
		<g>
			<g>
				<line fill="#FFFFFF" x1="158.699" y1="162.525" x2="534.964" y2="538.795"/>
			</g>
		</g>
		<g>
			<g>
				
					<rect x="80.77" y="348.825" transform="matrix(0.7071 0.7071 -0.7071 0.7071 349.542 -142.5408)" fill="#FFFFFF" width="532.122" height="3.671"/>
			</g>
		</g>
	</g>
	<g>
		<g>
			<g>
				<line fill="#FFFFFF" x1="538.3" y1="164.692" x2="157.754" y2="536.633"/>
			</g>
		</g>
		<g>
			<g>
				<polygon fill="#FFFFFF" points="159.033,537.945 156.475,535.321 537.021,163.379 539.578,166.004 				"/>
			</g>
		</g>
	</g>
	<g>
		<g>
			<g>
				<path fill="#FFFFFF" d="M576.864,358.857c0,0-26.677-18.707-50.467-91.556c-11.535-35.329-22.344-5.65-23.069-0.72
					c-0.726,4.925,10.088,61.276,21.632,67.046c11.535,5.77,17.299,0.725,17.299,0.725s3.412,4.338,8.142,9.912
					c-0.616,0.864-0.935,1.623-0.935,1.623s-8.652,29.554-21.623,42.53c-12.981,12.981-28.119,27.398-28.119,27.398
					s-5.044,23.789,5.77,26.672c10.814,2.887,49.021-51.903,51.903-62.001c1.766-6.171,4.591-15.023,5.049-22.797
					c2.248,2.324,4.457,4.462,6.486,6.218C579.747,373.278,581.913,362.464,576.864,358.857z M519.187,419.417
					c-1.193,0-2.162-1.122-2.162-2.525c0-1.384,0.969-2.52,2.162-2.52c1.193,0,2.162,1.136,2.162,2.52
					C521.349,418.295,520.38,419.417,519.187,419.417z M544.661,384.455c-1.198,0-2.162-1.131-2.162-2.525
					c0-1.394,0.964-2.525,2.162-2.525c1.193,0,2.157,1.131,2.157,2.525C546.818,383.324,545.854,384.455,544.661,384.455z
					 M556.673,349.727c-1.193,0-2.157-1.131-2.157-2.525c0-1.393,0.964-2.525,2.157-2.525c1.198,0,2.166,1.131,2.166,2.525
					C558.839,348.596,557.871,349.727,556.673,349.727z"/>
			</g>
		</g>
	</g>
	<g>
		<g>
			<g>
				<path fill="#FFFFFF" d="M235.933,414.773c-2.739-6.686-8.695-11.181-14.818-11.181c-1.566,0-3.083,0.296-4.515,0.883
					c-0.238,0.096-0.43,0.253-0.654,0.363l-31.019-62.035l0.157-0.243l23.05-76.122c1.608-9.645-4.825-1.608-4.825-1.608
					l-23.585,57.362l-2.553,5.097l-2.548-5.097l-23.59-57.362c0,0-6.433-8.037-4.825,1.608l23.05,76.122l0.158,0.243l-30.982,61.973
					c-0.191-0.086-0.348-0.224-0.544-0.301c-1.427-0.587-2.94-0.883-4.51-0.883c-6.123,0-12.074,4.495-14.818,11.186
					c-1.685,4.114-1.962,8.528-0.787,12.437c0.921,3.054,2.658,5.517,4.972,7.153c-4.309,7.473-10.289,14.957-12.627,14.636
					l-0.549,3.169c0.205,0.038,0.41,0.052,0.62,0.052c5.546,0,12.933-12.021,15.434-16.388c1.279,0.458,2.62,0.725,4.014,0.725
					c6.118,0,12.069-4.49,14.808-11.181c2.568-6.261,1.67-12.905-1.737-17.2l34.461-53.368l34.527,53.478
					c-3.331,4.304-4.195,10.876-1.651,17.09c2.74,6.691,8.69,11.181,14.809,11.181c1.574,0,3.097-0.296,4.519-0.883
					c3.522-1.437,6.128-4.448,7.344-8.466C237.894,423.306,237.613,418.891,235.933,414.773z M141.481,424.156
					c-2.787,6.81-9.707,10.785-15.148,8.557c-2.601-1.074-4.548-3.355-5.474-6.429c-0.969-3.202-0.725-6.853,0.678-10.284
					c2.252-5.498,7.011-9.196,11.845-9.196c1.145,0,2.253,0.219,3.293,0.644C142.173,409.7,144.33,417.198,141.481,424.156z
					 M175.34,340.507c0-1.284,1.04-2.324,2.324-2.324c1.279,0,2.319,1.04,2.319,2.324c0,1.284-1.04,2.319-2.319,2.319
					C176.38,342.826,175.34,341.791,175.34,340.507z M233.638,426.284c-0.931,3.073-2.878,5.354-5.479,6.429
					c-1.04,0.425-2.153,0.639-3.302,0.639c-4.825,0-9.587-3.698-11.84-9.196c-2.844-6.958-0.697-14.455,4.801-16.708
					c1.045-0.425,2.153-0.644,3.298-0.644c4.834,0,9.587,3.698,11.84,9.192C234.363,419.431,234.607,423.082,233.638,426.284z"/>
			</g>
		</g>
	</g>
	<g>
		<g>
			<g>
				<path fill="#FFFFFF" d="M422.994,201.915c-3.77,9.044-21.48,6.3-26.92,4.295c-5.44-1.999-6.585-2.29-19.189-14.608
					c-14.923-14.589-25.771-6.867-25.771-6.867c-1.245,0.83-2.281,1.684-3.164,2.563c-0.878-0.878-1.914-1.732-3.159-2.563
					c0,0-10.847-7.722-25.77,6.867c-12.599,12.317-13.754,12.608-19.194,14.608c-5.44,2.005-23.15,4.749-26.92-4.295
					c-0.715-1.723,6.089,23.231,36.804,18.827c24.277-3.475,34.117-9.659,38.24-13.835c4.123,4.176,13.968,10.361,38.245,13.835
					C416.91,225.147,423.71,200.193,422.994,201.915z"/>
			</g>
		</g>
	</g>
	<g>
		<g>
			<rect x="236.096" y="492.833" fill="#FFFFFF" width="229.212" height="12.241"/>
		</g>
		<g>
			<path fill="#FFFFFF" d="M235.475,528.964h-1.15c0,0-2.816-30.079-2.816-32.962c0-2.887,2.921-3.13,2.921-3.13l4.38-0.105
				L235.475,528.964z"/>
		</g>
		<g>
			<path fill="#FFFFFF" d="M466.496,529.036h1.15c0,0,2.816-30.08,2.816-32.962c0-2.887-2.921-3.13-2.921-3.13l-4.381-0.105
				L466.496,529.036z"/>
		</g>
		<g>
			<g>
				<polygon fill="#FFFFFF" points="239.694,528.358 240.061,528.358 240.72,503.934 239.193,503.934 				"/>
			</g>
			<g>
				<polygon fill="#FFFFFF" points="243.163,528.358 243.526,528.358 244.185,503.934 242.658,503.934 				"/>
			</g>
			<g>
				<polygon fill="#FFFFFF" points="246.628,528.358 246.996,528.358 247.654,503.934 246.127,503.934 				"/>
			</g>
			<g>
				<polygon fill="#FFFFFF" points="250.097,528.358 250.46,528.358 251.119,503.934 249.592,503.934 				"/>
			</g>
			<g>
				<polygon fill="#FFFFFF" points="253.562,528.358 253.93,528.358 254.588,503.934 253.056,503.934 				"/>
			</g>
			<g>
				<polygon fill="#FFFFFF" points="257.027,528.358 257.389,528.358 258.048,503.934 256.525,503.934 				"/>
			</g>
			<g>
				<polygon fill="#FFFFFF" points="260.492,528.358 260.859,528.358 261.517,503.934 259.986,503.934 				"/>
			</g>
			<g>
				<polygon fill="#FFFFFF" points="267.425,528.358 267.793,528.358 268.452,503.934 266.92,503.934 				"/>
			</g>
			<g>
				<polygon fill="#FFFFFF" points="270.89,528.358 271.258,528.358 271.916,503.934 270.384,503.934 				"/>
			</g>
			<g>
				<polygon fill="#FFFFFF" points="274.355,528.358 274.722,528.358 275.381,503.934 273.854,503.934 				"/>
			</g>
			<g>
				<polygon fill="#FFFFFF" points="277.82,528.358 278.187,528.358 278.845,503.934 277.314,503.934 				"/>
			</g>
			<g>
				<polygon fill="#FFFFFF" points="284.754,528.358 285.121,528.358 285.78,503.934 284.248,503.934 				"/>
			</g>
			<g>
				<polygon fill="#FFFFFF" points="281.289,528.358 281.651,528.358 282.31,503.934 280.788,503.934 				"/>
			</g>
			<g>
				<polygon fill="#FFFFFF" points="288.218,528.358 288.581,528.358 289.24,503.934 287.717,503.934 				"/>
			</g>
			<g>
				<polygon fill="#FFFFFF" points="291.683,528.358 292.051,528.358 292.709,503.934 291.182,503.934 				"/>
			</g>
			<g>
				<polygon fill="#FFFFFF" points="295.152,528.358 295.515,528.358 296.174,503.934 294.646,503.934 				"/>
			</g>
			<g>
				<polygon fill="#FFFFFF" points="298.617,528.358 298.984,528.358 299.643,503.934 298.116,503.934 				"/>
			</g>
			<g>
				<polygon fill="#FFFFFF" points="305.546,528.358 305.914,528.358 306.573,503.934 305.046,503.934 				"/>
			</g>
			<g>
				<polygon fill="#FFFFFF" points="302.082,528.358 302.449,528.358 303.108,503.934 301.581,503.934 				"/>
			</g>
			<g>
				<polygon fill="#FFFFFF" points="309.011,528.358 309.379,528.358 310.037,503.934 308.51,503.934 				"/>
			</g>
			<g>
				<polygon fill="#FFFFFF" points="312.48,528.358 312.843,528.358 313.502,503.934 311.975,503.934 				"/>
			</g>
			<g>
				<polygon fill="#FFFFFF" points="315.945,528.358 316.313,528.358 316.971,503.934 315.439,503.934 				"/>
			</g>
			<g>
				<polygon fill="#FFFFFF" points="319.415,528.358 319.777,528.358 320.436,503.934 318.909,503.934 				"/>
			</g>
			<g>
				<polygon fill="#FFFFFF" points="263.961,528.358 264.323,528.358 264.982,503.934 263.46,503.934 				"/>
			</g>
		</g>
		<g>
			<g>
				<polygon fill="#FFFFFF" points="323.428,528.358 323.796,528.358 324.454,503.934 322.922,503.934 				"/>
			</g>
			<g>
				<polygon fill="#FFFFFF" points="326.893,528.358 327.256,528.358 327.914,503.934 326.392,503.934 				"/>
			</g>
			<g>
				<polygon fill="#FFFFFF" points="330.362,528.358 330.725,528.358 331.383,503.934 329.856,503.934 				"/>
			</g>
			<g>
				<polygon fill="#FFFFFF" points="333.822,528.358 334.185,528.358 334.843,503.934 333.321,503.934 				"/>
			</g>
			<g>
				<polygon fill="#FFFFFF" points="337.292,528.358 337.654,528.358 338.313,503.934 336.791,503.934 				"/>
			</g>
			<g>
				<polygon fill="#FFFFFF" points="340.756,528.358 341.124,528.358 341.782,503.934 340.251,503.934 				"/>
			</g>
			<g>
				<polygon fill="#FFFFFF" points="344.221,528.358 344.584,528.358 345.242,503.934 343.72,503.934 				"/>
			</g>
			<g>
				<polygon fill="#FFFFFF" points="351.155,528.358 351.513,528.358 352.171,503.934 350.649,503.934 				"/>
			</g>
			<g>
				<polygon fill="#FFFFFF" points="354.62,528.358 354.987,528.358 355.645,503.934 354.118,503.934 				"/>
			</g>
			<g>
				<polygon fill="#FFFFFF" points="358.089,528.358 358.452,528.358 359.106,503.934 357.583,503.934 				"/>
			</g>
			<g>
				<polygon fill="#FFFFFF" points="361.549,528.358 361.917,528.358 362.575,503.934 361.048,503.934 				"/>
			</g>
			<g>
				<polygon fill="#FFFFFF" points="368.478,528.358 368.846,528.358 369.504,503.934 367.977,503.934 				"/>
			</g>
			<g>
				<polygon fill="#FFFFFF" points="365.018,528.358 365.386,528.358 366.045,503.934 364.513,503.934 				"/>
			</g>
			<g>
				<polygon fill="#FFFFFF" points="371.948,528.358 372.315,528.358 372.974,503.934 371.442,503.934 				"/>
			</g>
			<g>
				<polygon fill="#FFFFFF" points="375.417,528.358 375.775,528.358 376.434,503.934 374.911,503.934 				"/>
			</g>
			<g>
				<polygon fill="#FFFFFF" points="378.877,528.358 379.245,528.358 379.903,503.934 378.376,503.934 				"/>
			</g>
			<g>
				<polygon fill="#FFFFFF" points="382.351,528.358 382.714,528.358 383.373,503.934 381.846,503.934 				"/>
			</g>
			<g>
				<polygon fill="#FFFFFF" points="389.281,528.358 389.643,528.358 390.302,503.934 388.775,503.934 				"/>
			</g>
			<g>
				<polygon fill="#FFFFFF" points="385.806,528.358 386.174,528.358 386.833,503.934 385.306,503.934 				"/>
			</g>
			<g>
				<polygon fill="#FFFFFF" points="392.745,528.358 393.108,528.358 393.766,503.934 392.239,503.934 				"/>
			</g>
			<g>
				<polygon fill="#FFFFFF" points="396.21,528.358 396.572,528.358 397.231,503.934 395.709,503.934 				"/>
			</g>
			<g>
				<polygon fill="#FFFFFF" points="399.68,528.358 400.042,528.358 400.701,503.934 399.174,503.934 				"/>
			</g>
			<g>
				<polygon fill="#FFFFFF" points="403.139,528.358 403.502,528.358 404.161,503.934 402.634,503.934 				"/>
			</g>
			<g>
				<polygon fill="#FFFFFF" points="347.69,528.358 348.058,528.358 348.716,503.934 347.184,503.934 				"/>
			</g>
		</g>
		<g>
			<polygon fill="#FFFFFF" points="406.881,528.358 407.243,528.358 407.897,503.934 406.375,503.934 			"/>
		</g>
		<g>
			<polygon fill="#FFFFFF" points="410.341,528.358 410.708,528.358 411.367,503.934 409.84,503.934 			"/>
		</g>
		<g>
			<polygon fill="#FFFFFF" points="413.815,528.358 414.178,528.358 414.836,503.934 413.309,503.934 			"/>
		</g>
		<g>
			<polygon fill="#FFFFFF" points="417.27,528.358 417.638,528.358 418.296,503.934 416.769,503.934 			"/>
		</g>
		<g>
			<polygon fill="#FFFFFF" points="420.744,528.358 421.107,528.358 421.765,503.934 420.243,503.934 			"/>
		</g>
		<g>
			<polygon fill="#FFFFFF" points="424.209,528.358 424.571,528.358 425.23,503.934 423.703,503.934 			"/>
		</g>
		<g>
			<polygon fill="#FFFFFF" points="427.674,528.358 428.036,528.358 428.695,503.934 427.173,503.934 			"/>
		</g>
		<g>
			<polygon fill="#FFFFFF" points="434.603,528.358 434.966,528.358 435.624,503.934 434.102,503.934 			"/>
		</g>
		<g>
			<polygon fill="#FFFFFF" points="438.072,528.358 438.435,528.358 439.094,503.934 437.571,503.934 			"/>
		</g>
		<g>
			<polygon fill="#FFFFFF" points="441.532,528.358 441.9,528.358 442.558,503.934 441.031,503.934 			"/>
		</g>
		<g>
			<polygon fill="#FFFFFF" points="445.002,528.358 445.364,528.358 446.023,503.934 444.501,503.934 			"/>
		</g>
		<g>
			<polygon fill="#FFFFFF" points="451.931,528.358 452.294,528.358 452.953,503.934 451.43,503.934 			"/>
		</g>
		<g>
			<polygon fill="#FFFFFF" points="448.471,528.358 448.834,528.358 449.493,503.934 447.966,503.934 			"/>
		</g>
		<g>
			<polygon fill="#FFFFFF" points="455.4,528.358 455.768,528.358 456.427,503.934 454.895,503.934 			"/>
		</g>
		<g>
			<polygon fill="#FFFFFF" points="458.865,528.358 459.228,528.358 459.886,503.934 458.364,503.934 			"/>
		</g>
		<g>
			<polygon fill="#FFFFFF" points="462.33,528.358 462.697,528.358 463.356,503.934 461.829,503.934 			"/>
		</g>
		<g>
			<polygon fill="#FFFFFF" points="431.143,528.358 431.506,528.358 432.165,503.934 430.637,503.934 			"/>
		</g>
	</g>
</g>
</svg>
