<?xml version="1.0" encoding="utf-8"?>
<!-- Generator: Adobe Illustrator 17.0.0, SVG Export Plug-In . SVG Version: 6.00 Build 0)  -->
<!DOCTYPE svg PUBLIC "-//W3C//DTD SVG 1.1//EN" "http://www.w3.org/Graphics/SVG/1.1/DTD/svg11.dtd">
<svg version="1.1" id="Layer_1" xmlns="http://www.w3.org/2000/svg" xmlns:xlink="http://www.w3.org/1999/xlink" x="0px" y="0px"
	 width="700px" height="700px" viewBox="0 0 700 700" enable-background="new 0 0 700 700" xml:space="preserve">
<g>
	<g>
		<g>
			<g>
				<path fill="#010101" d="M680.319,345.918c0,178.818-146.605,323.769-327.476,323.769
					c-180.852,0-327.467-144.951-327.467-323.769c0-178.809,146.615-323.764,327.467-323.764
					C533.714,22.154,680.319,167.11,680.319,345.918z"/>
			</g>
		</g>
	</g>
	<g>
		<g>
			<g>
				<path fill="#FFFFFF" d="M352.669,644.401c-168.707,0-305.962-134.494-305.962-299.806c0-165.322,137.256-299.82,305.962-299.82
					c168.717,0,305.977,134.498,305.977,299.82C658.645,509.907,521.385,644.401,352.669,644.401z M352.669,49.497
					c-166.053,0-301.144,132.382-301.144,295.098c0,162.712,135.091,295.085,301.144,295.085
					c166.058,0,301.158-132.373,301.158-295.085C653.827,181.878,518.726,49.497,352.669,49.497z"/>
			</g>
		</g>
	</g>
	<g>
		<g>
			<g>
				<line fill="#FFFFFF" x1="165.784" y1="168.548" x2="536.786" y2="532.091"/>
			</g>
		</g>
		<g>
			<g>
				<polygon fill="#FFFFFF" points="535.507,533.345 164.504,169.802 167.064,167.294 538.066,530.836 				"/>
			</g>
		</g>
	</g>
	<g>
		<g>
			<g>
				<line fill="#FFFFFF" x1="540.076" y1="170.642" x2="164.852" y2="530.002"/>
			</g>
		</g>
		<g>
			<g>
				<polygon fill="#FFFFFF" points="166.114,531.269 163.591,528.734 538.815,169.374 541.336,171.91 				"/>
			</g>
		</g>
	</g>
	<g>
		<g>
			<g>
				<path fill="#FFFFFF" d="M578.101,358.239c0,0-26.304-18.074-49.761-88.459c-11.373-34.134-22.031-5.459-22.746-0.696
					c-0.716,4.758,9.947,59.203,21.33,64.778c11.373,5.575,17.057,0.701,17.057,0.701s3.365,4.191,8.028,9.577
					c-0.607,0.835-0.922,1.568-0.922,1.568s-8.531,28.555-21.321,41.092c-12.799,12.542-27.725,26.471-27.725,26.471
					s-4.974,22.985,5.689,25.77c10.663,2.789,48.335-50.148,51.177-59.904c1.741-5.962,4.527-14.515,4.978-22.026
					c2.216,2.246,4.395,4.311,6.395,6.008C580.943,372.172,583.079,361.725,578.101,358.239z M521.23,416.75
					c-1.177,0-2.132-1.084-2.132-2.439c0-1.337,0.955-2.435,2.132-2.435c1.176,0,2.132,1.098,2.132,2.435
					C523.362,415.667,522.406,416.75,521.23,416.75z M546.348,382.971c-1.181,0-2.132-1.093-2.132-2.439
					c0-1.347,0.95-2.439,2.132-2.439c1.176,0,2.127,1.093,2.127,2.439C548.475,381.878,547.524,382.971,546.348,382.971z
					 M558.192,349.418c-1.177,0-2.127-1.093-2.127-2.439c0-1.346,0.95-2.439,2.127-2.439c1.181,0,2.136,1.093,2.136,2.439
					C560.328,348.325,559.373,349.418,558.192,349.418z"/>
			</g>
		</g>
	</g>
	<g>
		<g>
			<g>
				<path fill="#FFFFFF" d="M241.938,412.264c-2.701-6.46-8.573-10.803-14.611-10.803c-1.544,0-3.04,0.286-4.452,0.853
					c-0.235,0.093-0.424,0.245-0.645,0.351l-30.586-59.937l0.155-0.235l22.728-73.547c1.586-9.319-4.757-1.554-4.757-1.554
					l-23.255,55.422l-2.517,4.925l-2.513-4.925l-23.26-55.422c0,0-6.343-7.765-4.757,1.554l22.728,73.547l0.156,0.235
					l-30.549,59.877c-0.188-0.083-0.344-0.217-0.536-0.291c-1.407-0.567-2.899-0.853-4.447-0.853
					c-6.037,0-11.905,4.343-14.61,10.807c-1.661,3.975-1.934,8.24-0.776,12.016c0.908,2.951,2.621,5.33,4.903,6.911
					c-4.249,7.221-10.145,14.451-12.45,14.141l-0.541,3.062c0.202,0.037,0.404,0.051,0.611,0.051
					c5.468,0,12.752-11.614,15.218-15.834c1.261,0.443,2.583,0.701,3.957,0.701c6.033,0,11.9-4.339,14.601-10.803
					c2.532-6.05,1.647-12.468-1.713-16.618l33.979-51.563l34.044,51.669c-3.284,4.159-4.136,10.508-1.628,16.512
					c2.701,6.464,8.569,10.803,14.601,10.803c1.552,0,3.054-0.286,4.456-0.853c3.473-1.388,6.042-4.298,7.242-8.18
					C243.872,420.508,243.595,416.243,241.938,412.264z M148.807,421.329c-2.748,6.579-9.571,10.42-14.936,8.267
					c-2.564-1.038-4.484-3.242-5.397-6.211c-0.955-3.094-0.715-6.621,0.668-9.936c2.221-5.312,6.913-8.885,11.679-8.885
					c1.129,0,2.221,0.212,3.247,0.622C149.489,407.363,151.616,414.606,148.807,421.329z M182.193,340.51
					c0-1.24,1.026-2.246,2.292-2.246c1.261,0,2.287,1.005,2.287,2.246c0,1.24-1.026,2.241-2.287,2.241
					C183.218,342.751,182.193,341.75,182.193,340.51z M239.675,423.385c-0.918,2.969-2.838,5.173-5.402,6.211
					c-1.026,0.41-2.123,0.618-3.256,0.618c-4.757,0-9.453-3.573-11.675-8.885c-2.804-6.722-0.687-13.966,4.734-16.143
					c1.031-0.41,2.123-0.622,3.252-0.622c4.766,0,9.453,3.573,11.674,8.881C240.39,416.764,240.63,420.291,239.675,423.385z"/>
			</g>
		</g>
	</g>
	<g>
		<g>
			<g>
				<path fill="#FFFFFF" d="M438.281,206.606c-3.717,8.738-21.18,6.086-26.544,4.15c-5.364-1.932-6.493-2.213-18.921-14.114
					c-14.714-14.096-25.41-6.635-25.41-6.635c-1.228,0.802-2.249,1.628-3.119,2.476c-0.866-0.848-1.887-1.674-3.115-2.476
					c0,0-10.695-7.46-25.41,6.635c-12.423,11.901-13.562,12.182-18.926,14.114c-5.364,1.937-22.826,4.588-26.544-4.15
					c-0.705-1.664,6.004,22.446,36.289,18.19c23.937-3.357,33.639-9.333,37.705-13.367c4.065,4.035,13.773,10.01,37.71,13.367
					C432.281,229.052,438.987,204.942,438.281,206.606z"/>
			</g>
		</g>
	</g>
	<g>
		<g>
			<rect x="242.098" y="487.683" fill="#FFFFFF" width="226.006" height="11.827"/>
		</g>
		<g>
			<path fill="#FFFFFF" d="M241.486,522.592h-1.134c0,0-2.776-29.062-2.776-31.847c0-2.789,2.88-3.025,2.88-3.025l4.319-0.102
				L241.486,522.592z"/>
		</g>
		<g>
			<path fill="#FFFFFF" d="M469.276,522.661h1.134c0,0,2.776-29.062,2.776-31.847c0-2.789-2.88-3.025-2.88-3.025l-4.32-0.102
				L469.276,522.661z"/>
		</g>
		<g>
			<g>
				<polygon fill="#FFFFFF" points="245.646,522.006 246.009,522.006 246.658,498.408 245.152,498.408 				"/>
			</g>
			<g>
				<polygon fill="#FFFFFF" points="249.067,522.006 249.425,522.006 250.074,498.408 248.569,498.408 				"/>
			</g>
			<g>
				<polygon fill="#FFFFFF" points="252.484,522.006 252.846,522.006 253.495,498.408 251.989,498.408 				"/>
			</g>
			<g>
				<polygon fill="#FFFFFF" points="255.904,522.006 256.262,522.006 256.911,498.408 255.406,498.408 				"/>
			</g>
			<g>
				<polygon fill="#FFFFFF" points="259.321,522.006 259.683,522.006 260.332,498.408 258.822,498.408 				"/>
			</g>
			<g>
				<polygon fill="#FFFFFF" points="262.737,522.006 263.094,522.006 263.744,498.408 262.242,498.408 				"/>
			</g>
			<g>
				<polygon fill="#FFFFFF" points="266.153,522.006 266.515,522.006 267.165,498.408 265.654,498.408 				"/>
			</g>
			<g>
				<polygon fill="#FFFFFF" points="272.99,522.006 273.352,522.006 274.002,498.408 272.491,498.408 				"/>
			</g>
			<g>
				<polygon fill="#FFFFFF" points="276.406,522.006 276.769,522.006 277.418,498.408 275.908,498.408 				"/>
			</g>
			<g>
				<polygon fill="#FFFFFF" points="279.823,522.006 280.185,522.006 280.834,498.408 279.328,498.408 				"/>
			</g>
			<g>
				<polygon fill="#FFFFFF" points="283.239,522.006 283.601,522.006 284.25,498.408 282.74,498.408 				"/>
			</g>
			<g>
				<polygon fill="#FFFFFF" points="290.076,522.006 290.438,522.006 291.088,498.408 289.577,498.408 				"/>
			</g>
			<g>
				<polygon fill="#FFFFFF" points="286.66,522.006 287.017,522.006 287.667,498.408 286.166,498.408 				"/>
			</g>
			<g>
				<polygon fill="#FFFFFF" points="293.492,522.006 293.85,522.006 294.499,498.408 292.998,498.408 				"/>
			</g>
			<g>
				<polygon fill="#FFFFFF" points="296.908,522.006 297.271,522.006 297.92,498.408 296.414,498.408 				"/>
			</g>
			<g>
				<polygon fill="#FFFFFF" points="300.329,522.006 300.687,522.006 301.336,498.408 299.83,498.408 				"/>
			</g>
			<g>
				<polygon fill="#FFFFFF" points="303.745,522.006 304.108,522.006 304.757,498.408 303.251,498.408 				"/>
			</g>
			<g>
				<polygon fill="#FFFFFF" points="310.578,522.006 310.94,522.006 311.59,498.408 310.084,498.408 				"/>
			</g>
			<g>
				<polygon fill="#FFFFFF" points="307.162,522.006 307.524,522.006 308.173,498.408 306.668,498.408 				"/>
			</g>
			<g>
				<polygon fill="#FFFFFF" points="313.994,522.006 314.356,522.006 315.005,498.408 313.5,498.408 				"/>
			</g>
			<g>
				<polygon fill="#FFFFFF" points="317.415,522.006 317.773,522.006 318.422,498.408 316.916,498.408 				"/>
			</g>
			<g>
				<polygon fill="#FFFFFF" points="320.831,522.006 321.193,522.006 321.843,498.408 320.332,498.408 				"/>
			</g>
			<g>
				<polygon fill="#FFFFFF" points="324.252,522.006 324.61,522.006 325.259,498.408 323.753,498.408 				"/>
			</g>
			<g>
				<polygon fill="#FFFFFF" points="269.574,522.006 269.931,522.006 270.581,498.408 269.08,498.408 				"/>
			</g>
		</g>
		<g>
			<g>
				<polygon fill="#FFFFFF" points="328.21,522.006 328.572,522.006 329.221,498.408 327.711,498.408 				"/>
			</g>
			<g>
				<polygon fill="#FFFFFF" points="331.626,522.006 331.983,522.006 332.632,498.408 331.131,498.408 				"/>
			</g>
			<g>
				<polygon fill="#FFFFFF" points="335.046,522.006 335.404,522.006 336.053,498.408 334.548,498.408 				"/>
			</g>
			<g>
				<polygon fill="#FFFFFF" points="338.458,522.006 338.815,522.006 339.465,498.408 337.964,498.408 				"/>
			</g>
			<g>
				<polygon fill="#FFFFFF" points="341.879,522.006 342.237,522.006 342.886,498.408 341.385,498.408 				"/>
			</g>
			<g>
				<polygon fill="#FFFFFF" points="345.295,522.006 345.658,522.006 346.307,498.408 344.797,498.408 				"/>
			</g>
			<g>
				<polygon fill="#FFFFFF" points="348.712,522.006 349.069,522.006 349.718,498.408 348.217,498.408 				"/>
			</g>
			<g>
				<polygon fill="#FFFFFF" points="355.548,522.006 355.901,522.006 356.551,498.408 355.05,498.408 				"/>
			</g>
			<g>
				<polygon fill="#FFFFFF" points="358.965,522.006 359.327,522.006 359.976,498.408 358.47,498.408 				"/>
			</g>
			<g>
				<polygon fill="#FFFFFF" points="362.385,522.006 362.743,522.006 363.388,498.408 361.887,498.408 				"/>
			</g>
			<g>
				<polygon fill="#FFFFFF" points="365.797,522.006 366.16,522.006 366.809,498.408 365.303,498.408 				"/>
			</g>
			<g>
				<polygon fill="#FFFFFF" points="372.629,522.006 372.992,522.006 373.641,498.408 372.135,498.408 				"/>
			</g>
			<g>
				<polygon fill="#FFFFFF" points="369.218,522.006 369.58,522.006 370.23,498.408 368.719,498.408 				"/>
			</g>
			<g>
				<polygon fill="#FFFFFF" points="376.051,522.006 376.413,522.006 377.062,498.408 375.552,498.408 				"/>
			</g>
			<g>
				<polygon fill="#FFFFFF" points="379.471,522.006 379.824,522.006 380.474,498.408 378.972,498.408 				"/>
			</g>
			<g>
				<polygon fill="#FFFFFF" points="382.883,522.006 383.245,522.006 383.894,498.408 382.389,498.408 				"/>
			</g>
			<g>
				<polygon fill="#FFFFFF" points="386.309,522.006 386.666,522.006 387.316,498.408 385.81,498.408 				"/>
			</g>
			<g>
				<polygon fill="#FFFFFF" points="393.141,522.006 393.499,522.006 394.148,498.408 392.642,498.408 				"/>
			</g>
			<g>
				<polygon fill="#FFFFFF" points="389.715,522.006 390.078,522.006 390.727,498.408 389.221,498.408 				"/>
			</g>
			<g>
				<polygon fill="#FFFFFF" points="396.557,522.006 396.915,522.006 397.564,498.408 396.058,498.408 				"/>
			</g>
			<g>
				<polygon fill="#FFFFFF" points="399.973,522.006 400.331,522.006 400.98,498.408 399.479,498.408 				"/>
			</g>
			<g>
				<polygon fill="#FFFFFF" points="403.394,522.006 403.752,522.006 404.401,498.408 402.896,498.408 				"/>
			</g>
			<g>
				<polygon fill="#FFFFFF" points="406.806,522.006 407.163,522.006 407.813,498.408 406.307,498.408 				"/>
			</g>
			<g>
				<polygon fill="#FFFFFF" points="352.132,522.006 352.495,522.006 353.144,498.408 351.633,498.408 				"/>
			</g>
		</g>
		<g>
			<polygon fill="#FFFFFF" points="410.495,522.006 410.852,522.006 411.497,498.408 409.996,498.408 			"/>
		</g>
		<g>
			<polygon fill="#FFFFFF" points="413.906,522.006 414.269,522.006 414.918,498.408 413.412,498.408 			"/>
		</g>
		<g>
			<polygon fill="#FFFFFF" points="417.332,522.006 417.69,522.006 418.339,498.408 416.833,498.408 			"/>
		</g>
		<g>
			<polygon fill="#FFFFFF" points="420.739,522.006 421.101,522.006 421.751,498.408 420.245,498.408 			"/>
		</g>
		<g>
			<polygon fill="#FFFFFF" points="424.164,522.006 424.522,522.006 425.171,498.408 423.67,498.408 			"/>
		</g>
		<g>
			<polygon fill="#FFFFFF" points="427.581,522.006 427.938,522.006 428.588,498.408 427.082,498.408 			"/>
		</g>
		<g>
			<polygon fill="#FFFFFF" points="430.997,522.006 431.354,522.006 432.004,498.408 430.503,498.408 			"/>
		</g>
		<g>
			<polygon fill="#FFFFFF" points="437.829,522.006 438.187,522.006 438.836,498.408 437.335,498.408 			"/>
		</g>
		<g>
			<polygon fill="#FFFFFF" points="441.25,522.006 441.608,522.006 442.257,498.408 440.756,498.408 			"/>
		</g>
		<g>
			<polygon fill="#FFFFFF" points="444.661,522.006 445.024,522.006 445.673,498.408 444.168,498.408 			"/>
		</g>
		<g>
			<polygon fill="#FFFFFF" points="448.083,522.006 448.44,522.006 449.09,498.408 447.589,498.408 			"/>
		</g>
		<g>
			<polygon fill="#FFFFFF" points="454.915,522.006 455.273,522.006 455.922,498.408 454.421,498.408 			"/>
		</g>
		<g>
			<polygon fill="#FFFFFF" points="451.504,522.006 451.861,522.006 452.511,498.408 451.005,498.408 			"/>
		</g>
		<g>
			<polygon fill="#FFFFFF" points="458.336,522.006 458.698,522.006 459.348,498.408 457.837,498.408 			"/>
		</g>
		<g>
			<polygon fill="#FFFFFF" points="461.752,522.006 462.11,522.006 462.759,498.408 461.258,498.408 			"/>
		</g>
		<g>
			<polygon fill="#FFFFFF" points="465.168,522.006 465.531,522.006 466.18,498.408 464.674,498.408 			"/>
		</g>
		<g>
			<polygon fill="#FFFFFF" points="434.418,522.006 434.775,522.006 435.425,498.408 433.919,498.408 			"/>
		</g>
	</g>
</g>
</svg>
