<?xml version="1.0" encoding="utf-8"?>
<!-- Generator: Adobe Illustrator 17.0.0, SVG Export Plug-In . SVG Version: 6.00 Build 0)  -->
<!DOCTYPE svg PUBLIC "-//W3C//DTD SVG 1.1//EN" "http://www.w3.org/Graphics/SVG/1.1/DTD/svg11.dtd">
<svg version="1.1" id="Layer_1" xmlns="http://www.w3.org/2000/svg" xmlns:xlink="http://www.w3.org/1999/xlink" x="0px" y="0px"
	 width="700px" height="700px" viewBox="0 0 700 700" enable-background="new 0 0 700 700" xml:space="preserve">
<g>
	<path fill="#FFFFFF" d="M677.305,489.947c0,61.002-31.974,110.463-71.411,110.463H94.107c-39.437,0-71.412-49.461-71.412-110.463
		V167.756c0-61.018,31.975-110.471,71.412-110.471h511.787c39.436,0,71.411,49.453,71.411,110.471V489.947z"/>
</g>
<g>
	<path fill="#030303" d="M605.894,604.698H94.107c-41.74,0-75.699-51.479-75.699-114.751V167.756
		c0-63.279,33.96-114.758,75.699-114.758h511.787c41.74,0,75.699,51.479,75.699,114.758v322.192
		C681.593,553.219,647.634,604.698,605.894,604.698z M94.107,61.573c-37.008,0-67.124,47.635-67.124,106.183v322.192
		c0,58.548,30.115,106.175,67.124,106.175h511.787c37.008,0,67.123-47.627,67.123-106.175V167.756
		c0-58.547-30.115-106.183-67.123-106.183H94.107z"/>
</g>
<g>
	<path fill="#090909" d="M233.499,284.324l-23.918,25.643h-30.492l-23.709-25.643V171.285l23.919-24.148h30.283l23.918,24.148
		V284.324z M214.237,276.845v-97.653l-12.705-12.822h-14.396l-12.704,12.822v97.653l12.913,13.886h13.978L214.237,276.845z"/>
</g>
<g>
	<path fill="#090909" d="M333.969,172.888v57.275l-24.353,25.844h-30.702v52.568h-19.262V148.529h49.755L333.969,172.888z
		 M301.358,236.561l13.132-14.104v-41.455l-12.914-13.031h-22.662v68.589H301.358z"/>
</g>
<g>
	<path fill="#090909" d="M416.837,219.685v19.446h-38.323v49.996h48.699v19.446h-67.961V148.529c25.618,0,39.378,0,64.996,0v19.442
		h-45.734v51.714H416.837z"/>
</g>
<g>
	<path fill="#090909" d="M457.587,148.743h26.045l17.997,57.271l16.297,59.828h0.636l-3.601-60.9v-56.199h19.27v159.618h-20.534
		l-24.773-78.63l-13.76-47.226h-0.636l2.328,48.934v76.922h-19.27V148.743z"/>
</g>
<g>
	<path fill="#010101" d="M526.977,507.964c-3.928-7.37-10.703-13.466-19.103-17.169c-5.376-2.362-11.155-3.617-16.741-3.617
		c-10.083,0-18.701,4.037-23.776,10.72l-0.033-0.135l-95.623-58.271l110.027-92.658l-131.031,79.845l-126.073-76.813l105.857,89.124
		l-90.246,55.005c-5.007-6.968-13.801-11.155-24.119-11.155c-5.577,0-11.365,1.256-16.732,3.618
		c-8.408,3.701-15.192,9.799-19.103,17.151c-4.037,7.587-4.564,15.593-1.499,22.594c-8.86,5.143-16.783,6.901-23.55,5.109
		c-8.433-2.244-12.311-9.363-12.361-9.446l-2.68,1.424l-2.688,1.407c0.202,0.385,5.05,9.463,16.063,12.444
		c2.295,0.62,4.664,0.922,7.11,0.922c6.583,0,13.718-2.261,21.322-6.7c5.126,6.365,13.651,10.133,23.324,10.133
		c5.577,0,11.364-1.255,16.741-3.617c8.408-3.718,15.175-9.799,19.095-17.151c3.651-6.867,4.404-14.07,2.253-20.569l69.954-30.467
		l24.27-1.508l13.751-11.59l17.352,14.622l24.253,1.508l71.135,31.003c-2.479,6.683-1.826,14.204,1.968,21.339
		c3.911,7.37,10.694,13.45,19.102,17.151c5.368,2.379,11.155,3.618,16.733,3.618c12.21,0,22.377-5.845,26.522-15.259
		C531.533,523.591,531.014,515.552,526.977,507.964z M235.797,517.879c-3.275,6.147-9.02,11.289-16.181,14.438
		c-4.606,2.044-9.555,3.099-14.295,3.099c-8.433,0-15.736-3.367-19.522-9.011c-0.561-0.821-1.047-1.708-1.449-2.613
		c-2.32-5.259-1.859-11.407,1.282-17.336c3.283-6.163,9.028-11.289,16.196-14.454c4.606-2.027,9.547-3.099,14.287-3.099
		c9.765,0,17.805,4.456,20.971,11.642c0.092,0.184,0.142,0.368,0.217,0.552l-0.536,1.977l1.072-0.486
		C239.247,507.361,238.552,512.703,235.797,517.879z M350.898,447.163c-3.249,0-5.912-2.646-5.912-5.912
		c0-3.266,2.663-5.913,5.912-5.913c3.275,0,5.922,2.646,5.922,5.913C356.82,444.517,354.173,447.163,350.898,447.163z
		 M522.899,528.13c-3.166,7.185-11.189,11.641-20.97,11.641c-4.741,0-9.681-1.072-14.287-3.099
		c-7.169-3.165-12.914-8.291-16.188-14.454c-3.158-5.913-3.61-12.076-1.298-17.336c3.165-7.168,11.214-11.624,20.979-11.624
		c4.748,0,9.69,1.056,14.296,3.099c7.16,3.149,12.913,8.291,16.18,14.454C524.766,516.724,525.227,522.871,522.899,528.13z"/>
</g>
<g>
	<circle fill="#010101" cx="125.277" cy="94.875" r="15.007"/>
</g>
<circle fill="#010101" cx="586.06" cy="99.163" r="15.007"/>
</svg>
