<?xml version="1.0" encoding="utf-8"?>
<!-- Generator: Adobe Illustrator 17.0.0, SVG Export Plug-In . SVG Version: 6.00 Build 0)  -->
<!DOCTYPE svg PUBLIC "-//W3C//DTD SVG 1.1//EN" "http://www.w3.org/Graphics/SVG/1.1/DTD/svg11.dtd">
<svg version="1.1" id="Layer_1" xmlns="http://www.w3.org/2000/svg" xmlns:xlink="http://www.w3.org/1999/xlink" x="0px" y="0px"
	 width="700px" height="700px" viewBox="0 0 700 700" enable-background="new 0 0 700 700" xml:space="preserve">
<g>
	<g>
		<g>
			<g>
				<g>
					<path fill="#FFFFFF" d="M215.474,451.317c24.869-0.602,49.733-0.884,74.597-1.116l74.592-0.338l74.597,0.338l37.298,0.403
						l37.294,0.713l-37.294,0.708l-37.298,0.403l-74.597,0.333l-74.592-0.333C265.207,452.196,240.343,451.909,215.474,451.317z"/>
				</g>
			</g>
		</g>
	</g>
	<g>
		<g>
			<g>
				<circle fill="#FFFFFF" cx="500.496" cy="293.296" r="6.669"/>
			</g>
		</g>
	</g>
	<g>
		<g>
			<g>
				<g>
					<path fill="#010101" d="M682.172,345.798c0,179.601-144.284,325.188-322.293,325.188
						c-177.994,0-322.289-145.586-322.289-325.188c0-179.596,144.294-325.181,322.289-325.181
						C537.888,20.618,682.172,166.202,682.172,345.798z"/>
				</g>
			</g>
		</g>
	</g>
	<g>
		<g>
			<g>
				<g>
					<path fill="#FFFFFF" d="M359.88,654.388c-168.556,0-305.691-138.355-305.691-308.418
						c0-170.059,137.135-308.414,305.691-308.414c168.561,0,305.695,138.355,305.695,308.414
						C665.575,516.033,528.44,654.388,359.88,654.388z M359.88,42.298c-165.944,0-300.949,136.227-300.949,303.672
						c0,167.447,135.004,303.676,300.949,303.676c165.944,0,300.953-136.229,300.953-303.676
						C660.832,178.525,525.824,42.298,359.88,42.298z"/>
				</g>
			</g>
		</g>
	</g>
	<g>
		<g>
			<g>
				<g>
					<path fill="#FFFFFF" d="M219.892,289.322c0,4.969-4.029,8.998-8.998,8.998c-4.965,0-8.994-4.029-8.994-8.998
						c0-4.966,4.029-8.995,8.994-8.995C215.863,280.327,219.892,284.356,219.892,289.322z"/>
				</g>
			</g>
		</g>
	</g>
	<g>
		<g>
			<g>
				<g>
					<path fill="#FFFFFF" d="M481.671,289.322c0,4.969-4.029,8.998-8.998,8.998c-4.965,0-8.994-4.029-8.994-8.998
						c0-4.966,4.029-8.995,8.994-8.995C477.642,280.327,481.671,284.356,481.671,289.322z"/>
				</g>
			</g>
		</g>
	</g>
	<g>
		<g>
			<g>
				<g>
					<path fill="#FFFFFF" d="M500.607,368.713c-3.163-5.937-8.632-10.851-15.412-13.842c-4.33-1.904-8.994-2.913-13.499-2.913
						c-8.132,0-15.088,3.251-19.173,8.646l-0.033-0.116l-77.13-47.001l88.754-74.74l-105.699,64.408l-101.684-61.963l85.378,71.897
						l-72.786,44.356c-4.038-5.608-11.137-8.994-19.455-8.994c-4.497,0-9.169,1.01-13.495,2.917
						c-6.785,2.987-12.259,7.9-15.412,13.833c-3.256,6.122-3.682,12.587-1.209,18.223c-7.15,4.158-13.541,5.571-18.996,4.121
						c-6.803-1.801-9.934-7.549-9.966-7.613l-2.163,1.144l-2.172,1.139c0.162,0.31,4.071,7.637,12.958,10.035
						c1.848,0.5,3.76,0.75,5.733,0.75c5.307,0,11.068-1.824,17.195-5.409c4.136,5.127,11.018,8.169,18.816,8.169
						c4.501,0,9.17-1.005,13.5-2.918c6.784-2.991,12.249-7.9,15.407-13.833c2.945-5.534,3.552-11.35,1.815-16.583l56.429-24.577
						l19.576-1.223l11.086-9.341l13.995,11.786l19.571,1.223l57.379,24.998c-2.005,5.395-1.482,11.457,1.584,17.218
						c3.154,5.937,8.623,10.846,15.412,13.838c4.325,1.908,8.993,2.917,13.495,2.917c9.845,0,18.047-4.714,21.391-12.305
						C504.285,381.319,503.863,374.839,500.607,368.713z M265.744,376.711c-2.645,4.969-7.28,9.109-13.055,11.656
						c-3.718,1.639-7.706,2.501-11.531,2.501c-6.803,0-12.694-2.718-15.75-7.275c-0.449-0.667-0.838-1.375-1.162-2.112
						c-1.871-4.237-1.5-9.202,1.033-13.976c2.644-4.974,7.284-9.109,13.069-11.656c3.714-1.639,7.697-2.501,11.522-2.501
						c7.877,0,14.361,3.594,16.913,9.382c0.074,0.148,0.116,0.301,0.171,0.45l-0.431,1.588l0.866-0.38
						C268.523,368.236,267.962,372.543,265.744,376.711z M358.587,319.674c-2.63,0-4.77-2.135-4.77-4.761
						c0-2.635,2.14-4.77,4.77-4.77c2.635,0,4.77,2.135,4.77,4.77C363.358,317.539,361.223,319.674,358.587,319.674z M497.32,384.991
						c-2.552,5.784-9.03,9.382-16.913,9.382c-3.826,0-7.808-0.862-11.527-2.501c-5.779-2.547-10.415-6.682-13.06-11.656
						c-2.542-4.774-2.908-9.739-1.042-13.986c2.552-5.784,9.04-9.378,16.917-9.378c3.83,0,7.817,0.861,11.526,2.501
						c5.78,2.547,10.42,6.687,13.06,11.656C498.825,375.784,499.195,380.744,497.32,384.991z"/>
				</g>
			</g>
		</g>
	</g>
	<g>
		<g>
			<g>
				<g>
					<g>
						<path fill="#FFFFFF" d="M140.651,427.698c36.159-0.875,72.327-1.283,108.487-1.625l108.482-0.487l108.482,0.487l54.239,0.593
							l54.248,1.032l-54.248,1.038l-54.239,0.583l-108.482,0.487l-108.482-0.496C212.978,428.981,176.81,428.569,140.651,427.698z"
							/>
					</g>
				</g>
			</g>
		</g>
	</g>
	<g>
		<g>
			<path fill="#FFFFFF" d="M345.672,91.366h-6.229v37.118h-3.58V91.366h-6.28v-3.165h16.088V91.366z"/>
		</g>
		<g>
			<path fill="#FFFFFF" d="M366.724,128.484h-3.575v-19.358h-9.707v19.358h-3.575V88.201h3.575v17.709h9.707V88.201h3.575V128.484z"
				/>
		</g>
		<g>
			<path fill="#FFFFFF" d="M386.392,128.484h-13.231V88.201h13.074v3.165h-9.499v15.032h8.651v3.219h-8.651v15.702h9.656V128.484z"
				/>
		</g>
	</g>
	<g>
		<g>
			<path fill="#FFFFFF" d="M320.479,216.029h-18.867v-57.446h18.645v4.513h-13.541v21.437h12.333v4.589h-12.333v22.391h13.764
				V216.029z"/>
		</g>
		<g>
			<path fill="#FFFFFF" d="M346.797,216.029h-18.353v-57.446h5.104v52.93h13.25V216.029z"/>
		</g>
		<g>
			<path fill="#FFFFFF" d="M359.166,216.029h-5.104v-57.446h5.104V216.029z"/>
		</g>
		<g>
			<path fill="#FFFFFF" d="M388.531,163.097h-8.882v52.933h-5.104v-52.933h-8.956v-4.513h22.942V163.097z"/>
		</g>
		<g>
			<path fill="#FFFFFF" d="M413.387,216.029h-18.867v-57.446h18.645v4.513h-13.541v21.437h12.333v4.589h-12.333v22.391h13.764
				V216.029z"/>
		</g>
	</g>
	<g>
		<path fill="#FFFFFF" d="M224.287,480.638v16.04h18.542v-16.04h5.002v38.333h-5.002v-17.973h-18.542v17.973h-5.006v-38.333H224.287
			z"/>
		<path fill="#FFFFFF" d="M262.642,506.914l-3.983,12.057h-5.122l13.083-38.333h5.914l13.083,38.333h-5.289l-4.094-12.057H262.642z
			 M275.266,503.045l-3.811-11.034c-0.852-2.501-1.422-4.777-1.987-6.995h-0.12c-0.565,2.218-1.134,4.608-1.931,6.94l-3.756,11.089
			H275.266z"/>
		<path fill="#FFFFFF" d="M296.216,480.638v38.333h-5.006v-38.333H296.216z"/>
		<path fill="#FFFFFF" d="M304.867,481.15c2.505-0.456,6.145-0.797,9.503-0.797c5.288,0,8.753,1.024,11.087,3.128
			c1.88,1.707,3.015,4.323,3.015,7.338c0,5.004-3.182,8.359-7.164,9.725v0.169c2.899,1.026,4.659,3.756,5.571,7.736
			c1.255,5.346,2.162,9.042,2.959,10.521h-5.122c-0.62-1.137-1.477-4.378-2.501-9.158c-1.14-5.288-3.242-7.28-7.734-7.449h-4.663
			v16.607h-4.95V481.15z M309.818,498.611h5.062c5.288,0,8.642-2.901,8.642-7.28c0-4.948-3.58-7.111-8.813-7.111
			c-2.39,0-4.038,0.171-4.891,0.398V498.611z"/>
		<path fill="#FFFFFF" d="M346.922,512.942c2.218,1.422,5.405,2.503,8.813,2.503c5.067,0,8.021-2.672,8.021-6.541
			c0-3.524-2.047-5.629-7.224-7.563c-6.252-2.276-10.124-5.576-10.124-10.92c0-5.972,4.946-10.408,12.402-10.408
			c3.862,0,6.766,0.91,8.415,1.876l-1.366,4.038c-1.195-0.738-3.751-1.82-7.224-1.82c-5.229,0-7.22,3.128-7.22,5.745
			c0,3.582,2.329,5.346,7.618,7.394c6.488,2.503,9.73,5.631,9.73,11.26c0,5.916-4.321,11.091-13.37,11.091
			c-3.696,0-7.734-1.137-9.781-2.503L346.922,512.942z"/>
		<path fill="#FFFFFF" d="M381.798,506.914l-3.978,12.057h-5.117l13.078-38.333h5.918l13.078,38.333h-5.288l-4.094-12.057H381.798z
			 M394.427,503.045l-3.811-11.034c-0.852-2.501-1.422-4.777-1.991-6.995h-0.111c-0.57,2.218-1.139,4.608-1.936,6.94l-3.751,11.089
			H394.427z"/>
		<path fill="#FFFFFF" d="M410.372,480.638h5.006v34.182h16.38v4.152h-21.386V480.638z"/>
		<path fill="#FFFFFF" d="M467.829,499.405c0,13.138-8.021,20.191-17.802,20.191c-10.183,0-17.232-7.905-17.232-19.508
			c0-12.17,7.507-20.133,17.746-20.133C461.063,479.955,467.829,487.974,467.829,499.405z M438.028,499.975
			c0,8.248,4.437,15.584,12.282,15.584c7.85,0,12.286-7.222,12.286-15.924c0-7.679-3.978-15.642-12.231-15.642
			C442.122,483.993,438.028,491.614,438.028,499.975z"/>
		<path fill="#FFFFFF" d="M474.28,518.971v-38.333h5.455l12.231,19.395c2.783,4.492,5.062,8.531,6.821,12.455l0.176-0.058
			c-0.459-5.117-0.574-9.781-0.574-15.753v-16.04h4.668v38.333h-5.006l-12.17-19.451c-2.672-4.267-5.233-8.646-7.109-12.798
			l-0.171,0.058c0.283,4.833,0.338,9.44,0.338,15.81v16.38H474.28z"/>
	</g>
</g>
</svg>
