<?xml version="1.0" encoding="utf-8"?>
<!-- Generator: Adobe Illustrator 17.0.0, SVG Export Plug-In . SVG Version: 6.00 Build 0)  -->
<!DOCTYPE svg PUBLIC "-//W3C//DTD SVG 1.1//EN" "http://www.w3.org/Graphics/SVG/1.1/DTD/svg11.dtd">
<svg version="1.1" id="Layer_1" xmlns="http://www.w3.org/2000/svg" xmlns:xlink="http://www.w3.org/1999/xlink" x="0px" y="0px"
	 width="1000px" height="800px" viewBox="0 0 1000 800" enable-background="new 0 0 1000 800" xml:space="preserve">
<g>
	<g>
		<g>
			<polygon fill="#FFFFFF" points="797.701,345.212 803.477,356.912 816.383,358.79 807.05,367.903 809.253,380.762 
				797.701,374.687 786.159,380.762 788.352,367.903 779.018,358.79 791.924,356.912 			"/>
		</g>
	</g>
	<g>
		<g>
			<path fill="#010101" d="M857.054,402.687c0,202.906-164.486,367.387-367.382,367.387c-202.911,0-367.392-164.481-367.392-367.387
				c0-202.901,164.481-367.382,367.392-367.382C692.567,35.306,857.054,199.787,857.054,402.687z"/>
		</g>
	</g>
	<g>
		<g>
			<path fill="#FFFFFF" d="M837.443,402.687c0,190.897-154.765,345.645-345.641,345.645c-190.902,0-345.646-154.748-345.646-345.645
				c0-190.897,154.744-345.636,345.646-345.636C682.678,57.052,837.443,211.79,837.443,402.687z"/>
		</g>
	</g>
	<g>
		<g>
			<polygon fill="#010101" points="258.871,460.928 140.033,460.928 140.033,337.684 258.871,337.684 242.15,399.424 			"/>
		</g>
	</g>
	<g>
		<g>
			<path fill="#010101" d="M489.672,735.637c-183.594,0-332.949-149.361-332.949-332.949c0-183.583,149.356-332.939,332.949-332.939
				c183.588,0,332.949,149.356,332.949,332.939C822.621,586.276,673.26,735.637,489.672,735.637z M489.672,75.845
				c-180.22,0-326.853,146.617-326.853,326.843c0,180.231,146.632,326.853,326.853,326.853S816.52,582.918,816.52,402.687
				C816.52,222.462,669.892,75.845,489.672,75.845z"/>
		</g>
	</g>
	<g>
		<g>
			<polygon fill="#FFFFFF" points="198.154,375.936 203.935,387.635 216.852,389.513 207.503,398.626 209.706,411.485 
				198.154,405.41 186.612,411.485 188.815,398.626 179.476,389.513 192.383,387.635 			"/>
		</g>
	</g>
	<g>
		<g>
			<polygon fill="#010101" points="716.575,455.325 841.466,455.325 841.466,332.091 716.575,332.091 734.146,393.821 			"/>
		</g>
	</g>
	<g>
		<path fill="none" d="M483.035,628.83c-7.14,0-12.917,6.857-12.917,15.304c0,8.458,5.776,15.314,12.917,15.314
			c7.119,0,12.896-6.857,12.896-15.314C495.931,635.687,490.154,628.83,483.035,628.83z"/>
	</g>
	<g>
		<path fill="none" d="M506.728,581.019c-1.495,0-2.702,1.217-2.702,2.707c0,1.495,1.207,2.707,2.702,2.707s2.707-1.212,2.707-2.707
			C509.435,582.236,508.223,581.019,506.728,581.019z"/>
	</g>
	<g>
		<path fill="none" d="M531.355,627.948c-7.119,0-12.901,6.857-12.901,15.304c0,8.457,5.782,15.309,12.901,15.309
			c7.125,0,12.906-6.852,12.906-15.309C544.261,634.805,538.48,627.948,531.355,627.948z"/>
	</g>
	<g>
		<path fill="#010101" d="M266.042,226.984c1.149-6.889,4.197-12.98,9.134-18.289c3.589-3.856,7.382-6.191,11.374-7.025
			c3.998-0.824,7.371,0.037,10.115,2.586c3.652,3.405,4.134,7.796,1.438,13.179l0.294,0.273c0.503-0.33,1.133-0.713,1.878-1.159
			c1.385-2.424,1.894-4.869,1.516-7.345c-0.372-2.471-1.574-4.648-3.599-6.532c-2.544-2.371-5.776-3.421-9.706-3.158l-0.157-0.152
			l0.514-0.074c3.998-0.661,7.408,0.325,10.246,2.959c3.908,3.635,4.743,8.2,2.518,13.683c2.44-1.007,4.858-1.307,7.256-0.897
			c2.398,0.409,4.528,1.48,6.396,3.211c2.665,2.487,3.903,5.446,3.698,8.867c-0.194,3.437-1.789,6.757-4.795,9.989l-17.911,19.249
			l0.278-6.663l-11.642-10.834c-0.981,1.059-2.019,2.392-3.127,4.008l-0.976-0.504c1.317-1.752,2.461-3.132,3.404-4.155
			l-1.427-1.328l-0.619,0.672c-0.939,1.007-2.036,2.34-3.31,3.993l-1.485-3.583l0.425-0.404c0.703-0.651,1.223-1.155,1.559-1.511
			c0.503-0.54,0.918-0.934,1.259-1.191l-10.115-9.406L266.042,226.984z M273.466,218.191l12.124,11.28
			c0.163-0.21,0.289-0.357,0.351-0.425l0.478-0.457c0.068-0.074,0.205-0.231,0.425-0.461l-10.997-10.231
			c0.713-2.209,1.758-4.05,3.122-5.52c1.569-1.684,3.116-2.733,4.633-3.142c1.521-0.404,3.331-0.268,5.435,0.414l-1.128,0.357
			c-3.279-0.54-6.08,0.436-8.394,2.927c-1.301,1.396-2.072,3.017-2.324,4.858l10.331,9.612l1.049-1.133
			c3.185-3.421,4.989-6.501,5.409-9.234c0.42-2.739-0.54-5.194-2.891-7.376c-2.057-1.925-4.37-2.775-6.925-2.56
			c-2.555,0.21-4.885,1.448-6.983,3.709C275.324,212.797,274.085,215.258,273.466,218.191z M287.794,231.522l14.816,13.788
			l1.254-1.348l-13.206-12.282c1.097-1.359,1.905-2.309,2.419-2.87c2.771-2.969,5.053-4.868,6.852-5.687
			c1.794-0.818,3.846-0.897,6.138-0.236l-0.304,0.325c-2.052-0.273-3.935,0.032-5.64,0.918c-1.716,0.882-3.762,2.608-6.144,5.173
			l-1.994,2.256l12.55,11.679l0.803-0.861l3.494-4.024c4.344-5.388,4.233-10.199-0.315-14.438c-2.849-2.65-5.577-3.631-8.174-2.938
			c-2.602,0.693-6.028,3.321-10.278,7.896C289.646,229.314,288.896,230.205,287.794,231.522z M308.418,213.138
			c3.274-0.53,6.422,0.609,9.449,3.426c3.048,2.833,4.575,6.243,4.58,10.231c0,3.877-1.873,7.838-5.624,11.868l-17.02,18.284
			l-1.149-0.22l15.787-16.962c3.431-3.693,5.535-6.705,6.301-9.035c1.684-5.189,0.441-9.727-3.741-13.614
			c-2.324-2.167-5.205-3.311-8.641-3.431L308.418,213.138z"/>
		<path fill="#010101" d="M329.241,163.324l-0.635,5.739l14.119,9.659l0.74-1.506l-12.755-8.73l0.62-5.902l1.017-0.22l-0.577,5.65
			l12.072,8.263c0.11-0.347,0.173-0.551,0.189-0.624l0.399-1.532c0.268-0.907,0.409-1.511,0.43-1.826
			c2.119,1.92,4.355,3.405,6.705,4.449c-0.614,0.367-1.044,0.64-1.307,0.824c-1.905,1.338-3.085,2.613-3.552,3.83l15.791,10.955
			l6.952,0.33l-15.183,10.64l1.711-6.396l-9.496-6.443c-0.645,3.772-0.861,7.072-0.64,9.911l-0.818,0.299
			c-0.194-2.796,0.031-6.228,0.682-10.293l0.032-0.467l-1.495-0.924c-0.997,3.657-1.359,7.345-1.086,11.065L342,199.582
			c-2.209-0.934-4.869-1.894-7.975-2.88l-0.551-0.147c0.85,4.507,2.036,7.833,3.536,9.979c0.886,1.265,1.846,2.183,2.891,2.754
			c1.039,0.567,3.1,1.301,6.175,2.193c0.273,0.084,0.687,0.21,1.254,0.378l-16.243,11.38l-1.17-0.388l15.314-10.729l-0.955-0.273
			c-2.45-0.677-4.192-1.317-5.225-1.92c-1.044-0.603-1.983-1.511-2.823-2.713c-1.432-2.046-2.739-5.677-3.904-10.892l-2.298-0.461
			c0.184,0.829,0.52,2.004,0.986,3.526l1.159,3.767c0.609,2.025,1.296,3.578,2.057,4.659c0.787,1.123,1.626,1.92,2.529,2.398
			c0.903,0.472,2.413,0.924,4.533,1.348c0.204,0.042,0.519,0.105,0.944,0.194l-15.042,10.535c1.831-3.489,2.702-7.077,2.623-10.755
			c-0.089-3.683-1.138-8.714-3.158-15.104l-0.178-0.504c-1.689-0.157-3.61,0.367-5.755,1.574c-0.052-2.419-0.399-4.732-1.044-6.936
			c0.461,0.063,0.74,0.105,0.844,0.126l2.24,0.309c0.771,0.121,1.637,0.189,2.597,0.194l-0.383-1.7l-0.572-0.047
			c-1.621-0.178-2.964-0.305-4.019-0.362l-0.42-0.026l0.021-0.997c1.553-0.042,3.137,0.052,4.769,0.288l-3.793-14.119l-5.588-1.196
			L329.241,163.324z M324.787,175.642l4.06,15.981c2.623,0.499,5.021,1.123,7.188,1.873l2.733,0.955
			c0.037,0.005,0.226,0.068,0.577,0.184c0.047-0.309,0.074-0.488,0.068-0.546l0.063-0.803c0-0.126,0.021-0.33,0.057-0.624
			c-2.922-1.186-5.928-1.994-9.013-2.429l-3.274-12.87L324.787,175.642z M328.58,178.182l2.802,11.039
			c0.326,0.078,0.509,0.126,0.556,0.152l2.198,0.52c1.175,0.262,2.802,0.792,4.89,1.6l0.619,0.241
			c0.1-1.689,0.372-3.478,0.813-5.372L328.58,178.182z M348.517,171.886c1.705,1.495,4.543,3.195,8.51,5.11
			c-0.478,0.252-0.751,0.393-0.808,0.435l-2.587,1.496c-1.175,0.672-2.015,1.186-2.513,1.532c-0.079,0.063-0.273,0.21-0.578,0.457
			l14.354,9.806l10.86,1.222l-17.413,12.203l-1.144-0.415l15.97-11.185l-8.761-0.992l-15.278-10.414
			c0.551-0.661,1.27-1.296,2.151-1.91c1.086-0.766,2.356-1.516,3.804-2.261l-0.824-0.409c-2.943-1.469-5.299-3.001-7.082-4.596
			L348.517,171.886z"/>
		<path fill="#010101" d="M359.544,149.909c4.014-5.367,9.103-9.354,15.252-11.978c4.774-2.036,9.15-2.675,13.132-1.925
			c3.982,0.755,6.647,2.723,8.017,5.923c1.117,2.613,1.086,5.362-0.084,8.242c-1.159,2.881-3.316,5.514-6.443,7.917
			c3.383,3.62,7.272,6.883,11.663,9.8c4.396,2.917,8.399,4.879,12.003,5.902l-0.435,0.383c-2.865,2.581-5.467,5.603-7.791,9.071
			l-0.362,0.551l-0.63-1.007c-5.162-8.1-10.325-14.627-15.498-19.58l-0.278-0.284c-1.248,1.386-3.09,2.849-5.52,4.391l-0.251,0.147
			l5.388,12.638l8.652,3.809l-17.466,7.45l-0.929-0.682l16.081-6.857l-7.114-3.111l-5.808-13.615l0.666-0.404
			c2.45-1.369,4.386-2.791,5.808-4.27c-0.252-0.215-0.404-0.347-0.457-0.409l-0.75-0.834c-0.058-0.057-0.173-0.168-0.347-0.33
			c-1.228,0.997-3.673,2.56-7.345,4.685l-0.341,0.226l6.422,15.068l5.572,2.382l-14.937,6.364l2.676-5.892l-4.837-11.353
			l-0.257,0.147c-1.18,0.85-2.224,1.684-3.127,2.497l-0.231,0.215l-0.593-0.551c0.829-0.803,1.495-1.395,1.999-1.768l1.606-1.201
			l0.241-0.184l-0.745-1.757c-1.328,0.566-2.865,1.569-4.596,2.996l-0.309,0.294c-0.094-0.336-0.178-1.159-0.262-2.481
			c0.011-0.11-0.053-0.682-0.178-1.721c-0.005-0.078-0.016-0.199-0.026-0.346c1.039-0.367,1.847-0.672,2.408-0.913
			c0.608-0.257,1.154-0.53,1.647-0.819l-7.088-16.62c-1.307-0.189-2.602-0.262-3.893-0.22L359.544,149.909z M369.366,144.678
			l7.77,18.21c0.651-0.278,1.249-0.603,1.784-0.96l-7.088-16.626c1.096-0.861,2.508-1.669,4.245-2.408
			c4.396-1.867,7.985-1.7,10.792,0.509c-2.24-0.646-4.097-0.944-5.577-0.913c-1.474,0.032-3.096,0.42-4.853,1.17
			c-1.374,0.588-2.518,1.238-3.442,1.946l6.799,15.944l0.341-0.226c4.097-2.702,6.847-5.383,8.248-8.043
			c1.406-2.665,1.516-5.393,0.325-8.19c-1.059-2.497-2.912-4.15-5.551-4.958c-2.634-0.808-5.42-0.582-8.373,0.676
			C372.419,141.818,370.619,143.109,369.366,144.678z M394.334,157.993c3.389,4.035,7.838,7.497,13.336,10.398
			c3.426,1.81,7.34,3.085,11.726,3.82c-4.575,3.578-8.52,7.733-11.846,12.476l-0.215,0.336l-0.907-0.251
			c3.106-4.649,6.799-8.678,11.101-12.078c-8.337-1.563-16.379-6.296-24.149-14.218l-0.446-0.488
			c5.771-5.551,7.518-11.007,5.231-16.369c-0.934-2.209-2.854-4.234-5.745-6.091c3.158,1.107,5.419,3.253,6.784,6.453
			C401.406,147.16,399.78,152.495,394.334,157.993z"/>
		<path fill="#010101" d="M409.774,130.303c4.885-4.989,10.86-8.248,17.948-9.779c5.147-1.113,9.591-0.861,13.347,0.745
			c3.752,1.606,6.028,4.239,6.815,7.901c1.059,4.879-1.06,8.756-6.353,11.626l0.084,0.399c0.609,0.021,1.343,0.058,2.209,0.126
			c2.519-1.196,4.339-2.917,5.446-5.157c1.102-2.246,1.364-4.722,0.782-7.424c-0.734-3.4-2.791-6.107-6.159-8.137l-0.042-0.215
			l0.461,0.236c3.657,1.737,5.897,4.496,6.715,8.284c1.117,5.215-0.797,9.433-5.76,12.665c2.576,0.567,4.732,1.705,6.463,3.41
			c1.736,1.705,2.875,3.804,3.41,6.29c0.771,3.568,0.094,6.7-2.031,9.396c-2.119,2.702-5.335,4.517-9.648,5.446l-25.697,5.551
			l4.04-5.304l-3.358-15.54c-1.417,0.305-3.033,0.803-4.858,1.495l-0.514-0.976c2.083-0.677,3.809-1.159,5.173-1.459l-0.409-1.899
			l-0.903,0.194c-1.338,0.288-3.001,0.751-4.995,1.38l0.834-3.788l0.582-0.089c0.944-0.131,1.663-0.247,2.136-0.347
			c0.719-0.157,1.285-0.247,1.71-0.257l-2.912-13.499L409.774,130.303z M452.454,143.172c2.99,1.438,4.916,4.176,5.792,8.216
			c0.881,4.071,0.178,7.744-2.088,11.012c-2.219,3.185-6.023,5.357-11.405,6.521l-24.412,5.272l-0.824-0.839l22.659-4.89
			c4.921-1.07,8.373-2.34,10.33-3.814c4.349-3.289,5.918-7.728,4.717-13.305c-0.672-3.111-2.382-5.693-5.131-7.754L452.454,143.172z
			 M420.891,127.333l3.494,16.191c0.257-0.078,0.435-0.131,0.53-0.152l0.656-0.1c0.094-0.021,0.299-0.068,0.613-0.136l-3.179-14.68
			c1.852-1.406,3.762-2.313,5.724-2.738c2.251-0.483,4.114-0.462,5.593,0.068c1.484,0.535,2.896,1.684,4.223,3.447l-1.128-0.357
			c-2.387-2.319-5.236-3.117-8.557-2.398c-1.868,0.404-3.431,1.29-4.685,2.665l2.975,13.788l1.511-0.331
			c4.57-0.986,7.807-2.481,9.722-4.48c1.905-2.004,2.519-4.575,1.847-7.707c-0.593-2.754-2.004-4.774-4.229-6.059
			c-2.214-1.291-4.827-1.606-7.849-0.955C425.497,123.975,423.073,125.282,420.891,127.333z M425.025,146.467l4.27,19.779
			l1.794-0.388l-3.809-17.622c1.673-0.483,2.88-0.813,3.62-0.971c3.977-0.855,6.936-1.107,8.877-0.75s3.662,1.463,5.168,3.315
			l-0.43,0.095c-1.527-1.395-3.248-2.224-5.152-2.476c-1.909-0.252-4.575-0.005-8.001,0.734l-2.927,0.703l3.625,16.768l1.144-0.252
			l5.168-1.301c6.647-1.936,9.312-5.945,8.001-12.025c-0.824-3.804-2.497-6.17-5.021-7.082c-2.529-0.924-6.847-0.724-12.954,0.598
			C427.801,145.717,426.678,146.01,425.025,146.467z"/>
		<path fill="#010101" d="M503.266,113.876l-0.572,0.713c-2.423,3.111-4.328,6.674-5.708,10.671
			c-0.262-0.561-0.451-0.971-0.582-1.238c-1.411-2.906-2.901-4.769-4.454-5.593c-1.569-0.824-4.344-1.191-8.326-1.102
			c-1.836,0.042-4.039,0.153-6.605,0.331l0.373,16.888l2.345-0.052l-0.33-14.942c1.862-0.21,3.63-0.341,5.325-0.378
			c3.106-0.068,5.404,0.215,6.883,0.839c1.485,0.63,2.823,1.884,4.019,3.772c-0.352-0.241-0.599-0.42-0.751-0.535
			c-2.02-1.527-3.473-2.424-4.354-2.697c-0.892-0.273-2.629-0.383-5.226-0.325c-0.787,0.016-2.182,0.095-4.187,0.241l-0.766,0.053
			l0.305,13.95l6.757-0.152l4.596-6.6l0.351,15.823l-4.874-6.023l-10.021,0.22l0.451,20.598l2.356-0.052l-0.425-18.871l7.969-0.178
			l0.976,0.934l-8.001,0.178l0.393,17.917c5-0.111,8.536-0.546,10.629-1.301c2.088-0.756,3.71-2.188,4.864-4.297l1.873-3.384
			c0.068-0.147,0.205-0.42,0.42-0.819c0.693,2.681,1.532,4.816,2.513,6.411c0.976,1.595,2.581,3.442,4.811,5.551l-41.163,0.913
			l5.488-4.381l-0.367-16.374c-2.052,0.289-3.893,0.965-5.54,2.036l-0.53-0.766c1.469-1.107,3.483-1.852,6.049-2.225l-0.037-1.726
			c-0.42-0.042-0.713-0.057-0.881-0.057c-2.503,0.057-4.759,1.028-6.773,2.906c1.044-3.935,3.573-5.955,7.581-6.044l-0.351-15.677
			l-5.676-4.281L503.266,113.876z M510.479,160.553l-1.841,3.348l-40.088,0.892l-0.609-0.976l40.203-0.897l1.196-2.34
			c-3.599-3.174-6.159-6.6-7.686-10.262l1.186,0.414c1.416,3.106,3.762,6.186,7.035,9.244L510.479,160.553z M494.562,128.876
			l0.367,16.232L494,144.646l-0.367-16.227L494.562,128.876z M505.091,116.41l-0.252,0.336c-2.901,4.082-4.816,7.492-5.76,10.231
			l-0.645-0.761c1.558-3.825,3.599-7.35,6.128-10.566L505.091,116.41z"/>
		<path fill="#010101" d="M519.036,119.159c6.285-2.34,12.712-2.959,19.307-1.852c5.115,0.866,9.15,2.686,12.098,5.467
			c2.944,2.781,4.129,5.881,3.552,9.312c-0.472,2.802-1.973,5.099-4.512,6.894c-2.539,1.794-5.771,2.854-9.701,3.19
			c0.892,4.868,2.408,9.716,4.533,14.543c2.136,4.827,4.433,8.641,6.92,11.443l-0.572,0.089c-3.804,0.624-7.623,1.773-11.453,3.436
			l-0.603,0.268l0.016-1.186c0.026-9.606-0.803-17.89-2.487-24.852l-0.078-0.383c-1.8,0.488-4.134,0.729-7.015,0.719l-0.294-0.016
			l-2.287,13.546l5.231,7.88l-18.719-3.153l-0.42-1.076l17.24,2.906l-4.313-6.463l2.461-14.596l0.782,0.021
			c2.797,0.173,5.194,0.021,7.183-0.467c-0.095-0.309-0.147-0.509-0.163-0.588l-0.178-1.107c-0.011-0.079-0.053-0.231-0.11-0.467
			c-1.569,0.184-4.481,0.178-8.714-0.016l-0.409,0.005l-2.717,16.154l3.4,5.005l-16.002-2.697l5.435-3.515l2.041-12.172
			l-0.294-0.011c-1.459,0.079-2.781,0.215-3.982,0.409l-0.31,0.057l-0.205-0.776c1.133-0.231,2.015-0.372,2.644-0.414l1.999-0.142
			l0.305-0.026l0.315-1.884c-1.427-0.241-3.253-0.226-5.482,0.047l-0.425,0.074c0.11-0.33,0.482-1.07,1.122-2.235
			c0.063-0.084,0.326-0.598,0.777-1.542c0.042-0.063,0.095-0.168,0.173-0.305c1.07,0.252,1.91,0.43,2.513,0.535
			c0.651,0.11,1.264,0.174,1.826,0.194l3.001-17.817c-0.997-0.861-2.041-1.621-3.148-2.282L519.036,119.159z M530.138,120.061
			l-3.289,19.517c0.698,0.121,1.375,0.174,2.02,0.157l3.001-17.817c1.39-0.141,3.011-0.052,4.874,0.263
			c4.706,0.792,7.649,2.875,8.814,6.248c-1.537-1.747-2.943-3.006-4.202-3.783c-1.264-0.766-2.833-1.311-4.716-1.626
			c-1.469-0.252-2.791-0.325-3.945-0.22l-2.885,17.093l0.42-0.005c4.9-0.068,8.662-0.845,11.28-2.325
			c2.623-1.484,4.182-3.725,4.691-6.715c0.451-2.681-0.215-5.068-1.994-7.172c-1.784-2.098-4.255-3.416-7.424-3.951
			C534.246,119.301,532.032,119.411,530.138,120.061z M543.967,144.736c0.682,5.231,2.555,10.551,5.619,15.954
			c1.915,3.374,4.518,6.558,7.817,9.549c-5.782,0.54-11.348,1.909-16.71,4.113l-0.362,0.163l-0.63-0.703
			c5.12-2.24,10.409-3.635,15.865-4.181c-6.175-5.803-10.398-14.139-12.665-24.999l-0.11-0.651
			c7.859-1.559,12.272-5.21,13.242-10.955c0.399-2.366-0.12-5.11-1.558-8.232c2.062,2.634,2.812,5.661,2.23,9.087
			C555.772,139.437,551.522,143.051,543.967,144.736z"/>
		<path fill="#010101" d="M624.705,146.304c-1.868,1.034-3.536,2.246-4.984,3.631c-2.875,2.733-4.706,4.381-5.493,4.931
			l-0.257,0.132c0.021-0.289,0.037-0.509,0.058-0.661c0.278-2.288,0.399-3.919,0.346-4.879c-0.053-0.96-0.315-1.983-0.797-3.058
			c-1.212-2.723-3.116-4.67-5.703-5.839c-2.392-1.076-4.674-1.307-6.862-0.698c-2.182,0.614-3.725,1.925-4.627,3.935
			c-1.695,3.751-0.026,7.576,5.005,11.484l5.037,3.924c7.177,5.577,9.291,11.647,6.332,18.21c-1.658,3.662-4.417,6.112-8.294,7.356
			c-3.883,1.249-7.849,0.955-11.915-0.882c-2.544-1.149-5.21-2.823-8.001-5.026l-3.484-2.738c-1.411-1.091-2.634-1.868-3.657-2.335
			c-1.369-0.614-2.969-0.813-4.811-0.598l-0.057-0.588c4.654-2.922,8.384-6.023,11.201-9.291l0.535,0.441
			c-1.117,3.714-0.939,7.072,0.53,10.073c1.464,2.996,4.097,5.351,7.891,7.062c2.985,1.353,5.671,1.732,8.069,1.144
			c2.382-0.588,4.108-2.052,5.168-4.397c1.212-2.696,0.997-5.488-0.666-8.357c-1.201-2.041-4.287-4.832-9.271-8.373
			c-3.851-2.728-6.285-5.482-7.319-8.258c-1.028-2.775-0.771-5.871,0.771-9.281c1.59-3.525,4.139-5.818,7.665-6.873
			c3.526-1.055,7.324-0.666,11.385,1.165c2.613,1.18,5.445,3.022,8.504,5.53c1.427,1.18,2.529,1.952,3.31,2.303
			c1.096,0.493,2.461,0.651,4.097,0.478L624.705,146.304z M615.067,167.657c1.994,3.667,2.094,7.502,0.289,11.495
			c-1.92,4.265-5.199,7.13-9.837,8.594c-4.638,1.469-9.323,1.133-14.055-1.002c-2.408-1.086-4.475-2.313-6.191-3.683l-4.769-3.725
			c-1.112-0.871-2.382-1.637-3.804-2.277c-1.269-0.577-2.56-0.85-3.866-0.818l0.042-1.155c1.401-0.01,2.697,0.257,3.908,0.798
			c1.338,0.608,2.775,1.495,4.313,2.675l4.596,3.568c1.826,1.411,3.883,2.634,6.159,3.662c4.465,2.015,8.908,2.309,13.331,0.882
			c4.412-1.438,7.534-4.171,9.354-8.211c1.548-3.41,1.689-6.946,0.441-10.603L615.067,167.657z M586.878,166.545
			c-0.986,4.386-0.052,8.232,2.781,11.521l-0.12,0.273c-3.61-3.08-4.822-7.093-3.636-12.035L586.878,166.545z M587.592,153.812
			l0.85,1.149c0.141,1.648,1.799,3.714,4.979,6.196l4.785,3.767c3.248,2.571,5.33,4.454,6.254,5.661
			c0.913,1.207,1.328,2.602,1.244,4.171l-0.299,0.026c-0.478-1.616-1.191-2.954-2.119-4.019c-0.929-1.065-2.875-2.738-5.85-5.016
			c-4.312-3.294-7.119-5.718-8.4-7.277C587.749,156.912,587.271,155.359,587.592,153.812z M613.362,150.895
			c-1.275-3.72-3.321-6.212-6.133-7.482c-1.7-0.766-3.316-0.907-4.879-0.43c-1.563,0.478-2.681,1.48-3.368,2.991
			c-0.745,1.653-0.383,3.856,1.086,6.616l0.199,0.288l-0.294,0.194c-2.35-2.644-2.964-5.22-1.836-7.723
			c0.782-1.737,2.046-2.875,3.788-3.405c1.747-0.53,3.625-0.341,5.63,0.566c1.92,0.866,3.421,2.031,4.485,3.494
			c1.076,1.469,1.616,3.085,1.621,4.864L613.362,150.895z M626.147,148.644l-0.53,0.367c-1.616,1.123-3.059,2.246-4.339,3.358
			c-3.043,2.576-4.748,4.008-5.121,4.302l-0.272,0.157l-0.651-0.703l0.262-0.241c1.317-1.18,3.121-2.675,5.414-4.486l4.266-3.394
			l0.289-0.189L626.147,148.644z"/>
		<path fill="#010101" d="M638.435,152.768l14.302,9.669l-6.878,1.249l-8.887,13.142c0.409,0.394,0.913,0.829,1.521,1.291
			l8.803-13.017l5.535-1.044l0.241,0.96l-5.23,0.981l-8.583,12.686l0.939,0.771c1.469,1.196,2.933,2.293,4.391,3.279
			c2.115,1.427,3.998,2.55,5.651,3.379l9.47-13.998l-1.411-5.913l14.055,9.502l-6.936,1.211l-21.437,31.694l1.458,5.776
			l-13.992-9.459l6.569-0.745l8.73-12.896c-1.978-0.75-3.872-1.731-5.672-2.954c-1.71-1.149-3.41-2.434-5.11-3.856l-0.404-0.315
			l-8.704,12.869l1.107,9.171l-15.724-10.635l-0.236-1.353l14.842,10.036l-1.07-7.329l9.464-13.992l0.839,0.655
			c2.545,2.015,4.407,3.426,5.609,4.234c1.946,1.317,3.819,2.198,5.608,2.644l0.745-1.096c-2.098-1.002-4.418-2.361-6.951-4.077
			c-1.359-0.923-2.329-1.621-2.923-2.114l-2.885-2.35c-0.105-0.1-0.33-0.278-0.656-0.53l-10.204,15.089l1.669,5.918l-14.05-9.506
			l6.48-0.798l8.992-13.3c-1.705-1.149-3.515-1.401-5.435-0.745l-0.436-0.74c2.177-0.688,4.307-0.441,6.385,0.729l0.761-1.128
			c-2.277-1.538-4.643-1.889-7.135-1.055l-0.241-0.614c3.163-2.114,6.274-2.518,9.328-1.222l9.26-13.688L638.435,152.768z
			 M672.478,178.276l-5.141,0.913l-20.985,31.027l1.143,9.197l-15.791-10.676l-0.199-1.338l14.81,10.021l-0.965-7.35l21.432-31.699
			l5.64-1.059L672.478,178.276z"/>
		<path fill="#010101" d="M704.702,207.819c1.296,3.667,1.212,7.665-0.231,11.999c-1.448,4.333-4.06,8.394-7.843,12.193
			c-5.561,5.588-11.474,8.688-17.728,9.297c-6.259,0.609-11.695-1.38-16.306-5.976c-2.954-2.938-4.716-6.684-5.304-11.233
			l0.131-0.132c0.588,3.72,2.497,7.193,5.74,10.425c4.349,4.339,9.559,6.253,15.619,5.76c6.054-0.498,11.621-3.294,16.71-8.394
			c3.778-3.804,6.453-7.759,8.006-11.878c1.563-4.113,1.867-8.038,0.924-11.773L704.702,207.819z M697.73,198.228
			c4.213,4.197,5.992,9.145,5.336,14.853c-0.651,5.708-3.641,11.227-8.961,16.573c-5.026,5.053-10.283,7.833-15.76,8.358
			c-5.477,0.52-10.32-1.311-14.511-5.488c-3.321-3.305-5.21-7.298-5.687-11.982c-0.693-6.91,2.009-13.421,8.111-19.548
			c5.22-5.241,10.666-8.106,16.348-8.604C688.276,191.89,693.317,193.837,697.73,198.228z M695.5,200.463
			c-5.866-5.839-13.929-3.604-24.197,6.7c-9.481,9.528-11.332,17.161-5.556,22.916c2.692,2.676,5.997,3.452,9.91,2.329
			c3.919-1.128,8.295-4.118,13.137-8.977c5.472-5.498,8.615-10.005,9.423-13.52C699.036,206.239,698.139,203.092,695.5,200.463z
			 M697.179,209.912l-0.184-0.703c-0.75-2.576-1.821-4.554-3.206-5.939c-4.564-4.543-11.306-2.329-20.24,6.642
			c-6.532,6.558-9.444,12.309-8.741,17.261l-0.493,0.026c-0.509-2.959-0.136-5.808,1.123-8.546c1.259-2.739,3.589-5.813,6.988-9.234
			c9.59-9.627,16.914-11.92,21.983-6.873C696.717,204.839,697.64,207.294,697.179,209.912z"/>
		<path fill="#010101" d="M738.646,256.185c0.242,1.648-0.141,3.368-1.149,5.163c-1.007,1.799-2.466,3.368-4.407,4.701
			c-4.37,3.022-8.678,3.504-12.933,1.442c-3.211-1.553-6.962-5.42-11.238-11.6c-0.713-1.028-1.29-1.909-1.736-2.644l-12.476,8.631
			l-2.334,8.625l-10.467-15.136l0.247-1.375l9.843,14.229l1.799-6.957l13.625-9.423c1.102,1.821,2.346,3.714,3.71,5.687
			c3.588,5.199,7.177,8.421,10.75,9.669c3.573,1.254,7.245,0.567,11.033-2.051c1.579-1.086,2.775-2.267,3.599-3.557
			C737.335,260.309,738.043,258.505,738.646,256.185z M721.842,224.985l9.375,13.562c3.987,5.761,6.023,10.404,6.117,13.945
			c0.152,4.481-1.548,7.943-5.089,10.393c-2.156,1.49-4.438,2.193-6.852,2.104c-2.413-0.089-4.706-0.955-6.888-2.602
			c-2.177-1.642-4.879-4.795-8.095-9.444l-2.571-3.72l-14.622,10.11l-0.771,5.986l-9.716-14.05l6.438,1.757l12.114-8.378
			c-0.147-0.257-0.257-0.436-0.326-0.536c-1.007-1.448-2.271-2.618-3.814-3.52l0.351-0.645c1.694,0.818,2.917,1.763,3.657,2.827
			l0.75,1.092l0.199,0.22l1.48-1.028c-0.262-0.504-0.446-0.834-0.562-0.997c-1.485-2.151-3.2-3.51-5.141-4.077l0.247-0.619
			c3.1-0.33,5.598,0.865,7.476,3.583l0.33,0.482l14.8-10.235L721.842,224.985z M725.541,236.984l-15.131,10.466l0.268,0.394
			l0.509,0.803c0.058,0.078,0.163,0.205,0.305,0.372l13.473-9.317l2.298,3.326c1.779,2.576,2.812,4.549,3.09,5.918
			c0.278,1.374-0.036,2.927-0.955,4.659c0.514-1.454,0.593-2.886,0.23-4.287c-0.362-1.406-1.243-3.127-2.649-5.157l-2.151-3.111
			l-12.749,8.814c2.754,3.987,5.362,6.511,7.823,7.565c2.45,1.055,4.932,0.719,7.424-1.013c2.802-1.931,4.26-4.171,4.376-6.71
			c0.12-2.534-1.091-5.651-3.641-9.333C727.409,239.429,726.569,238.295,725.541,236.984z"/>
	</g>
	<g>
		<path fill-rule="evenodd" clip-rule="evenodd" d="M489.566,422.351c3.285-5.094,6.233-11.28,11.48-14.04
			c31.499-16.573,49.395,24.832,55.434,41.557c11.883,26.515,50.114,42.197,54.867,10.461
			c5.729,58.063-110.59,29.255-122.741-13.945c-2.114,13.431-10.996,27.061-30.319,37.171
			c-33.068,17.334-99.478,15.818-96.739-23.226c6.243,28.646,43.85,18.216,56.305-9.302c10.399-16.925,27.512-54.128,57.764-41.819
			C481.014,411.407,485.978,416.685,489.566,422.351z"/>
	</g>
	<g>
		<path fill-rule="evenodd" clip-rule="evenodd" d="M569.301,343.361c0.425,9.333,0.42,17.864-5.656,20.708
			c-3.867,14.192-9.884,27.638-26.216,29.401c-21.799,2.371-42.103-10.97-40.104-34.758c-2.487-3.714-9.952-2.838-13.909-1.076
			c-1.689,9.748-2.492,16.443-6.411,22.47c-10.299,15.792-42.706,19.044-54.028,2.676c-1.899-2.749-3.63-6.364-4.806-9.627
			c-1.186-3.279-0.776-7.975-2.681-11.773c-1.049-2.12-4.517-3.195-5.351-6.406c-0.918-3.599,0.913-9.386,1.186-13.51
			c26.342-3.415,44.873-4.118,63.004,3.332c2.634,1.101,5.273,3.866,8.017,4.286c2.088,0.315,5.268-1.107,8.022-1.065
			c3.326,0.047,6.616,1.773,8.557,1.595c4.69-0.42,9.758-4.575,14.973-5.87C531.621,339.3,548.63,340.91,569.301,343.361z
			 M423.754,353.009c-3.31,9.386-0.068,27.302,7.25,32.439c12.172,8.577,35.146,3.667,41.72-5.871
			c2.392-3.494,7.057-13.279,4.281-21.941c-3.316-10.278-19.291-12.371-33.729-12.371
			C436.136,345.265,425.36,348.475,423.754,353.009z M508.012,353.365c-5.928,6.547-4.213,21.159,1.07,27.276
			c8.971,10.362,30.917,13.898,41.72,3.741c5.871-5.524,11.521-22.397,5.86-31.373c-3.221-5.068-17.728-7.057-29.427-6.138
			C518.08,347.578,511.957,349.006,508.012,353.365z"/>
	</g>
	<g>
		<path fill="#010101" d="M486.43,623.615c-114.294,0-207.281-92.983-207.281-207.276s92.988-207.281,207.281-207.281
			c114.288,0,207.271,92.988,207.271,207.281S600.718,623.615,486.43,623.615z M486.43,213.086
			c-112.074,0-203.252,91.177-203.252,203.252c0,112.069,91.178,203.247,203.252,203.247c112.069,0,203.241-91.178,203.241-203.247
			C689.671,304.264,598.499,213.086,486.43,213.086z"/>
	</g>
	<g>
		<g>
			<polygon fill="#FFFFFF" points="779.007,369.714 784.789,381.413 797.706,383.291 788.357,392.404 790.56,405.263 
				779.007,399.188 767.465,405.263 769.669,392.404 760.33,383.291 773.236,381.413 			"/>
		</g>
	</g>
	<g>
		<g>
			<g>
				<g>
					<path fill="#010101" d="M609.605,657.569c-2.713-5.094-7.403-9.312-13.211-11.883c-3.72-1.626-7.717-2.492-11.579-2.492
						c-6.983,0-12.943,2.791-16.453,7.413l-0.026-0.089l-66.152-40.324l76.12-64.096l-90.653,55.229l-87.228-53.147l73.235,61.667
						l-62.427,38.063c-3.473-4.822-9.554-7.718-16.689-7.718c-3.861,0-7.864,0.866-11.579,2.503
						c-5.813,2.56-10.514,6.773-13.221,11.867c-2.791,5.247-3.153,10.787-1.034,15.629c-6.128,3.557-11.616,4.774-16.295,3.531
						c-5.834-1.547-8.515-6.474-8.557-6.537l-1.847,0.992l-1.863,0.971c0.142,0.268,3.494,6.547,11.112,8.604
						c1.584,0.436,3.227,0.64,4.916,0.64c4.554,0,9.496-1.563,14.758-4.627c3.536,4.396,9.438,7.004,16.138,7.004
						c3.856,0,7.865-0.866,11.579-2.503c5.824-2.571,10.503-6.773,13.215-11.867c2.519-4.753,3.043-9.727,1.559-14.229l48.398-21.08
						l16.793-1.044l9.507-8.017l12.003,10.12l16.778,1.033l49.211,21.453c-1.71,4.627-1.259,9.827,1.375,14.764
						c2.702,5.105,7.398,9.307,13.211,11.867c3.72,1.648,7.717,2.503,11.574,2.503c8.447,0,15.487-4.045,18.357-10.562
						C612.763,668.382,612.401,662.821,609.605,657.569z M408.157,664.432c-2.272,4.244-6.243,7.807-11.196,9.989
						c-3.19,1.411-6.616,2.141-9.889,2.141c-5.845,0-10.887-2.329-13.51-6.238c-0.388-0.566-0.724-1.175-1.007-1.799
						c-1.595-3.646-1.28-7.891,0.892-11.988c2.266-4.276,6.243-7.817,11.206-10.015c3.19-1.396,6.605-2.141,9.889-2.141
						c6.753,0,12.313,3.09,14.501,8.054c0.068,0.136,0.1,0.262,0.157,0.388l-0.378,1.364l0.745-0.336
						C410.539,657.155,410.062,660.843,408.157,664.432z M487.793,615.509c-2.245,0-4.097-1.831-4.097-4.092
						c0-2.267,1.852-4.092,4.097-4.092c2.261,0,4.097,1.826,4.097,4.092C491.89,613.678,490.054,615.509,487.793,615.509z
						 M606.782,671.525c-2.183,4.968-7.734,8.048-14.506,8.048c-3.269,0-6.695-0.74-9.879-2.14
						c-4.958-2.193-8.929-5.729-11.201-10.005c-2.188-4.087-2.492-8.352-0.897-11.988c2.182-4.963,7.759-8.038,14.517-8.038
						c3.279,0,6.695,0.73,9.889,2.146c4.947,2.167,8.929,5.73,11.196,9.989C608.083,663.64,608.398,667.884,606.782,671.525z"/>
				</g>
			</g>
		</g>
	</g>
</g>
</svg>
