<?xml version="1.0" encoding="utf-8"?>
<!-- Generator: Adobe Illustrator 17.0.0, SVG Export Plug-In . SVG Version: 6.00 Build 0)  -->
<!DOCTYPE svg PUBLIC "-//W3C//DTD SVG 1.1//EN" "http://www.w3.org/Graphics/SVG/1.1/DTD/svg11.dtd">
<svg version="1.1" id="Layer_1" xmlns="http://www.w3.org/2000/svg" xmlns:xlink="http://www.w3.org/1999/xlink" x="0px" y="0px"
	 width="1000px" height="800px" viewBox="0 0 1000 800" enable-background="new 0 0 1000 800" xml:space="preserve">
<g>
	<g>
		<g>
			<g>
				<g>
					<path fill="#FFFFFF" d="M935.524,610.241c0,81.173-42.534,146.991-95.007,146.991H159.506
						c-52.473,0-95.029-65.818-95.029-146.991V181.513c0-81.202,42.556-147.003,95.029-147.003h681.011
						c52.473,0,95.007,65.802,95.007,147.003V610.241z"/>
				</g>
			</g>
		</g>
		<g>
			<g>
				<g>
					<path fill="#030303" d="M840.517,762.915H159.506c-55.556,0-100.735-68.486-100.735-152.674V181.513
						c0-84.216,45.178-152.715,100.735-152.715h681.011c55.534,0,100.712,68.498,100.712,152.715v428.728
						C941.229,694.429,896.051,762.915,840.517,762.915z M159.506,40.198c-49.249,0-89.325,63.401-89.325,141.315v428.728
						c0,77.903,40.076,141.263,89.325,141.263h681.011c49.226,0,89.325-63.36,89.325-141.263V181.513
						c0-77.915-40.098-141.315-89.325-141.315H159.506z"/>
				</g>
			</g>
		</g>
	</g>
	<g>
		<g>
			<g>
				<g>
					<path fill="#090909" d="M353.797,336.598l-31.844,34.139h-40.563l-31.541-34.139v-150.4l31.82-32.127h40.284l31.844,32.127
						V336.598z M328.17,326.672V196.727l-16.907-17.046h-19.169l-16.896,17.046v129.946l17.186,18.484h18.588L328.17,326.672z"/>
				</g>
			</g>
		</g>
		<g>
			<g>
				<g>
					<path fill="#090909" d="M493.274,189.329v76.208l-32.399,34.394h-40.864v69.947h-25.627V156.912h66.212L493.274,189.329z
						 M449.882,274.049l17.464-18.761v-55.152l-17.174-17.347h-30.161v91.26H449.882z"/>
				</g>
			</g>
		</g>
		<g>
			<g>
				<g>
					<path fill="#090909" d="M607.658,251.599v25.882h-51.023v66.538h64.822v25.859h-90.426V156.912c34.069,0,52.391,0,86.483,0
						v25.877h-60.88v68.811H607.658z"/>
				</g>
			</g>
		</g>
		<g>
			<g>
				<g>
					<path fill="#090909" d="M650.191,157.479h34.649l23.958,76.215l21.708,79.595h0.835l-4.801-81.033v-74.777h25.639v212.399
						h-27.332l-32.956-104.619l-18.31-62.851h-0.845l3.107,65.1v102.37h-25.651V157.479z"/>
				</g>
			</g>
		</g>
	</g>
	<g>
		<g>
			<g>
				<g>
					<path fill="#010101" d="M737.108,634.269c-5.219-9.811-14.24-17.928-25.408-22.868c-7.166-3.131-14.843-4.801-22.299-4.801
						c-13.405,0-24.873,5.358-31.611,14.263l-0.046-0.186l-127.243-77.531L676.89,419.857L502.555,526.101L334.772,423.893
						l140.88,118.581l-120.088,73.195c-6.668-9.254-18.368-14.843-32.099-14.843c-7.432,0-15.133,1.692-22.264,4.823
						c-11.19,4.917-20.211,13.034-25.43,22.821c-5.38,10.088-6.076,20.756-1.994,30.056c-11.782,6.819-22.334,9.161-31.333,6.796
						c-11.213-2.969-16.374-12.431-16.444-12.546l-3.56,1.901l-3.594,1.856c0.266,0.533,6.726,12.57,21.371,16.559
						c3.061,0.812,6.227,1.229,9.463,1.229c8.766,0,18.263-3.037,28.387-8.928c6.818,8.488,18.159,13.474,31.019,13.474
						c7.433,0,15.133-1.646,22.287-4.777c11.19-4.986,20.189-13.081,25.408-22.868c4.859-9.091,5.856-18.693,3.003-27.343
						l93.094-40.54l32.283-2.017l18.288-15.422l23.099,19.435l32.271,2.017l94.659,41.259c-3.293,8.906-2.435,18.925,2.621,28.411
						c5.219,9.787,14.217,17.904,25.408,22.821c7.142,3.176,14.855,4.823,22.276,4.823c16.245,0,29.789-7.792,35.286-20.316
						C743.162,655.049,742.466,644.357,737.108,634.269z M349.661,647.465c-4.384,8.186-12.013,15.006-21.546,19.203
						c-6.123,2.713-12.721,4.128-19.029,4.128c-11.202,0-20.931-4.475-25.987-11.99c-0.719-1.09-1.38-2.273-1.925-3.479
						c-3.061-7.003-2.458-15.191,1.716-23.077c4.384-8.186,12.014-15.028,21.546-19.226c6.146-2.713,12.721-4.129,19.029-4.129
						c12.976,0,23.69,5.915,27.912,15.492c0.092,0.233,0.185,0.488,0.29,0.742l-0.73,2.621l1.438-0.672
						C354.231,633.456,353.314,640.576,349.661,647.465z M502.821,553.351c-4.325,0-7.885-3.502-7.885-7.862
						c0-4.337,3.56-7.862,7.885-7.862c4.338,0,7.862,3.525,7.862,7.862C510.684,549.849,507.159,553.351,502.821,553.351z
						 M731.682,661.079c-4.221,9.578-14.889,15.492-27.9,15.492c-6.309,0-12.896-1.415-19.006-4.105
						c-9.543-4.221-17.198-11.04-21.558-19.249c-4.198-7.862-4.789-16.072-1.716-23.053c4.198-9.555,14.913-15.492,27.9-15.492
						c6.332,0,12.918,1.414,19.03,4.151c9.52,4.174,17.196,11.04,21.533,19.226C734.151,645.91,734.789,654.098,731.682,661.079z"/>
				</g>
			</g>
		</g>
	</g>
	<g>
		<g>
			<g>
				<g>
					<path fill="#010101" d="M210.504,87.382c0,11.011-8.941,19.98-19.957,19.98c-11.04,0-20.004-8.969-20.004-19.98
						c0-11.034,8.964-19.98,20.004-19.98C201.563,67.402,210.504,76.348,210.504,87.382z"/>
				</g>
			</g>
		</g>
	</g>
	<g>
		<g>
			<g>
				<path fill="#010101" d="M849.486,87.382c0,11.011-8.928,19.98-19.968,19.98s-19.957-8.969-19.957-19.98
					c0-11.034,8.918-19.98,19.957-19.98S849.486,76.348,849.486,87.382z"/>
			</g>
		</g>
	</g>
</g>
</svg>
