<?xml version="1.0" encoding="utf-8"?>
<!-- Generator: Adobe Illustrator 17.0.0, SVG Export Plug-In . SVG Version: 6.00 Build 0)  -->
<!DOCTYPE svg PUBLIC "-//W3C//DTD SVG 1.1//EN" "http://www.w3.org/Graphics/SVG/1.1/DTD/svg11.dtd">
<svg version="1.1" id="Layer_1" xmlns="http://www.w3.org/2000/svg" xmlns:xlink="http://www.w3.org/1999/xlink" x="0px" y="0px"
	 width="700px" height="700px" viewBox="0 0 700 700" enable-background="new 0 0 700 700" xml:space="preserve">
<g>
	<g>
		<g>
			<polygon fill="#FFFFFF" points="623.468,292.935 628.617,303.363 640.121,305.038 631.802,313.16 633.765,324.623 
				623.468,319.207 613.18,324.623 615.134,313.16 606.815,305.038 618.319,303.363 			"/>
		</g>
	</g>
	<g>
		<g>
			<path fill="#010101" d="M676.373,344.166c0,180.864-146.618,327.477-327.473,327.477c-180.869,0-327.482-146.613-327.482-327.477
				c0-180.86,146.613-327.473,327.482-327.473C529.755,16.693,676.373,163.306,676.373,344.166z"/>
		</g>
	</g>
	<g>
		<g>
			<path fill="#FFFFFF" d="M658.893,344.166c0,170.16-137.953,308.098-308.093,308.098c-170.164,0-308.098-137.938-308.098-308.098
				c0-170.16,137.934-308.089,308.098-308.089C520.94,36.077,658.893,174.006,658.893,344.166z"/>
		</g>
	</g>
	<g>
		<g>
			<polygon fill="#010101" points="143.171,396.08 37.243,396.08 37.243,286.224 143.171,286.224 128.267,341.257 			"/>
		</g>
	</g>
	<g>
		<g>
			<path fill="#010101" d="M348.9,640.947c-163.65,0-296.781-133.136-296.781-296.781c0-163.641,133.131-296.772,296.781-296.772
				c163.645,0,296.781,133.131,296.781,296.772C645.681,507.811,512.545,640.947,348.9,640.947z M348.9,52.829
				c-160.643,0-291.347,130.69-291.347,291.338c0,160.652,130.704,291.347,291.347,291.347s291.342-130.695,291.342-291.347
				C640.243,183.518,509.543,52.829,348.9,52.829z"/>
		</g>
	</g>
	<g>
		<g>
			<polygon fill="#FFFFFF" points="89.05,320.321 94.203,330.749 105.717,332.423 97.383,340.546 99.347,352.008 89.05,346.593 
				78.762,352.008 80.725,340.546 72.401,332.423 83.906,330.749 			"/>
		</g>
	</g>
	<g>
		<g>
			<polygon fill="#010101" points="551.155,391.085 662.479,391.085 662.479,281.239 551.155,281.239 566.817,336.263 			"/>
		</g>
	</g>
	<g>
		<path fill="none" d="M342.984,545.742c-6.365,0-11.514,6.112-11.514,13.641c0,7.539,5.149,13.651,11.514,13.651
			c6.346,0,11.495-6.112,11.495-13.651C354.479,551.855,349.33,545.742,342.984,545.742z"/>
	</g>
	<g>
		<path fill="none" d="M364.104,503.125c-1.333,0-2.408,1.085-2.408,2.413c0,1.333,1.076,2.413,2.408,2.413
			c1.333,0,2.413-1.08,2.413-2.413C366.517,504.21,365.436,503.125,364.104,503.125z"/>
	</g>
	<g>
		<path fill="none" d="M386.055,544.957c-6.346,0-11.5,6.112-11.5,13.642c0,7.538,5.154,13.646,11.5,13.646
			c6.351,0,11.504-6.108,11.504-13.646C397.559,551.069,392.406,544.957,386.055,544.957z"/>
	</g>
	<g>
		<path fill="#010101" d="M149.564,187.55c1.024-6.141,3.741-11.57,8.142-16.302c3.199-3.437,6.58-5.519,10.139-6.262
			c3.563-0.735,6.571,0.033,9.016,2.305c3.255,3.035,3.685,6.949,1.281,11.747l0.262,0.243c0.449-0.295,1.01-0.636,1.674-1.033
			c1.235-2.161,1.688-4.34,1.351-6.547c-0.332-2.203-1.403-4.143-3.208-5.822c-2.268-2.114-5.149-3.049-8.651-2.815l-0.14-0.136
			l0.458-0.066c3.563-0.589,6.603,0.29,9.133,2.638c3.484,3.241,4.227,7.309,2.244,12.196c2.175-0.898,4.331-1.165,6.468-0.8
			c2.137,0.364,4.036,1.319,5.701,2.862c2.375,2.217,3.479,4.854,3.297,7.903c-0.173,3.063-1.595,6.023-4.274,8.904l-15.965,17.158
			l0.248-5.939l-10.377-9.657c-0.874,0.944-1.8,2.132-2.787,3.573l-0.87-0.449c1.174-1.562,2.193-2.792,3.035-3.704l-1.272-1.183
			l-0.552,0.599c-0.837,0.898-1.814,2.086-2.951,3.559l-1.324-3.194l0.379-0.36c0.627-0.58,1.09-1.029,1.389-1.347
			c0.449-0.482,0.818-0.832,1.122-1.062l-9.016-8.385L149.564,187.55z M156.181,179.712l10.807,10.054
			c0.145-0.187,0.257-0.318,0.313-0.379l0.426-0.407c0.061-0.066,0.182-0.206,0.379-0.411l-9.802-9.119
			c0.636-1.969,1.567-3.61,2.783-4.92c1.398-1.501,2.777-2.437,4.129-2.801c1.356-0.36,2.97-0.238,4.845,0.369l-1.006,0.318
			c-2.923-0.482-5.42,0.388-7.482,2.609c-1.16,1.244-1.847,2.689-2.072,4.33l9.208,8.568l0.935-1.01
			c2.839-3.049,4.447-5.794,4.821-8.231c0.374-2.441-0.482-4.63-2.577-6.575c-1.833-1.716-3.895-2.474-6.173-2.282
			c-2.278,0.187-4.354,1.291-6.224,3.306C157.837,174.904,156.733,177.098,156.181,179.712z M168.952,191.595l13.207,12.29
			l1.118-1.202l-11.771-10.948c0.978-1.211,1.698-2.058,2.156-2.558c2.47-2.647,4.504-4.34,6.108-5.069
			c1.599-0.729,3.428-0.8,5.472-0.21l-0.271,0.29c-1.829-0.243-3.507,0.028-5.027,0.818c-1.529,0.786-3.353,2.324-5.476,4.611
			l-1.777,2.011l11.187,10.41l0.715-0.767l3.115-3.587c3.872-4.803,3.774-9.091-0.281-12.87c-2.539-2.362-4.971-3.236-7.286-2.619
			c-2.32,0.617-5.373,2.96-9.161,7.038C170.604,189.626,169.935,190.421,168.952,191.595z M187.336,175.208
			c2.918-0.472,5.724,0.543,8.422,3.054c2.717,2.526,4.078,5.565,4.082,9.119c0,3.456-1.669,6.987-5.013,10.578l-15.171,16.298
			l-1.024-0.196l14.072-15.119c3.059-3.292,4.934-5.977,5.617-8.053c1.501-4.625,0.393-8.67-3.334-12.135
			c-2.072-1.932-4.639-2.951-7.702-3.059L187.336,175.208z"/>
		<path fill="#010101" d="M205.897,130.805l-0.566,5.116l12.585,8.61l0.659-1.342l-11.369-7.782l0.552-5.261l0.907-0.196
			l-0.514,5.036l10.761,7.366c0.098-0.309,0.154-0.491,0.168-0.556l0.355-1.366c0.238-0.809,0.365-1.347,0.384-1.627
			c1.889,1.712,3.882,3.035,5.977,3.966c-0.547,0.328-0.931,0.571-1.165,0.734c-1.698,1.193-2.75,2.329-3.166,3.414l14.076,9.765
			l6.197,0.295l-13.534,9.484l1.525-5.701l-8.465-5.743c-0.575,3.363-0.767,6.304-0.571,8.834l-0.729,0.266
			c-0.173-2.493,0.028-5.551,0.608-9.175l0.028-0.416l-1.333-0.823c-0.889,3.26-1.211,6.547-0.968,9.863l-1.029-0.44
			c-1.969-0.832-4.34-1.689-7.108-2.567l-0.491-0.131c0.758,4.017,1.814,6.982,3.152,8.895c0.79,1.127,1.646,1.946,2.577,2.455
			c0.926,0.505,2.764,1.16,5.504,1.955c0.243,0.075,0.613,0.187,1.118,0.337l-14.479,10.144l-1.043-0.346l13.651-9.563l-0.851-0.243
			c-2.184-0.603-3.737-1.174-4.658-1.712c-0.931-0.538-1.768-1.347-2.516-2.418c-1.277-1.824-2.441-5.06-3.48-9.709l-2.048-0.411
			c0.164,0.739,0.463,1.787,0.879,3.143l1.033,3.357c0.543,1.805,1.155,3.189,1.833,4.153c0.702,1.001,1.45,1.712,2.254,2.137
			c0.805,0.421,2.151,0.823,4.041,1.202c0.182,0.037,0.463,0.093,0.841,0.173l-13.408,9.39c1.632-3.11,2.409-6.308,2.338-9.587
			c-0.079-3.283-1.015-7.768-2.815-13.464l-0.159-0.449c-1.506-0.14-3.218,0.328-5.13,1.403c-0.046-2.156-0.355-4.218-0.93-6.182
			c0.411,0.056,0.659,0.093,0.753,0.112l1.997,0.276c0.688,0.108,1.459,0.169,2.315,0.173l-0.341-1.515l-0.51-0.042
			c-1.445-0.159-2.642-0.272-3.582-0.323l-0.374-0.023l0.019-0.888c1.384-0.038,2.797,0.046,4.251,0.257l-3.381-12.585l-4.981-1.066
			L205.897,130.805z M201.927,141.785l3.619,14.245c2.338,0.444,4.476,1.001,6.407,1.67l2.437,0.851
			c0.033,0.005,0.201,0.061,0.514,0.164c0.042-0.276,0.066-0.435,0.061-0.487l0.057-0.715c0-0.112,0.019-0.294,0.051-0.556
			c-2.605-1.057-5.284-1.777-8.034-2.165l-2.918-11.472L201.927,141.785z M205.308,144.049l2.497,9.839
			c0.29,0.07,0.454,0.112,0.496,0.136l1.96,0.463c1.048,0.234,2.497,0.706,4.359,1.426l0.552,0.215
			c0.089-1.506,0.332-3.1,0.725-4.789L205.308,144.049z M223.079,138.437c1.52,1.333,4.05,2.848,7.585,4.555
			c-0.426,0.225-0.669,0.351-0.72,0.388l-2.306,1.333c-1.047,0.599-1.796,1.057-2.24,1.365c-0.07,0.056-0.243,0.187-0.515,0.407
			l12.795,8.74l9.68,1.089l-15.521,10.878l-1.02-0.37l14.235-9.97l-7.81-0.884l-13.618-9.283c0.491-0.589,1.132-1.155,1.917-1.702
			c0.968-0.683,2.1-1.351,3.39-2.016l-0.734-0.365c-2.623-1.309-4.723-2.675-6.313-4.096L223.079,138.437z"/>
		<path fill="#010101" d="M232.909,118.847c3.578-4.784,8.114-8.338,13.595-10.677c4.256-1.814,8.156-2.385,11.705-1.716
			c3.549,0.673,5.925,2.427,7.146,5.28c0.996,2.329,0.968,4.78-0.075,7.347c-1.033,2.568-2.956,4.915-5.743,7.057
			c3.016,3.227,6.482,6.135,10.396,8.736c3.919,2.6,7.487,4.349,10.699,5.261l-0.388,0.341c-2.553,2.301-4.873,4.995-6.945,8.086
			l-0.323,0.491l-0.561-0.898c-4.601-7.22-9.203-13.038-13.815-17.453l-0.248-0.253c-1.113,1.235-2.755,2.539-4.92,3.914
			l-0.224,0.131l4.803,11.266l7.712,3.395l-15.568,6.641l-0.828-0.608l14.334-6.112l-6.341-2.773l-5.177-12.136l0.594-0.36
			c2.184-1.221,3.91-2.488,5.177-3.807c-0.225-0.192-0.36-0.309-0.407-0.365l-0.668-0.744c-0.052-0.051-0.154-0.149-0.309-0.295
			c-1.094,0.889-3.274,2.282-6.547,4.176l-0.304,0.201l5.724,13.431l4.966,2.123l-13.314,5.673l2.385-5.252l-4.312-10.12
			l-0.229,0.131c-1.052,0.758-1.983,1.501-2.787,2.226l-0.206,0.192l-0.528-0.491c0.739-0.715,1.333-1.244,1.781-1.576l1.431-1.071
			l0.215-0.164l-0.664-1.566c-1.183,0.505-2.553,1.398-4.097,2.67l-0.276,0.262c-0.084-0.299-0.159-1.033-0.234-2.212
			c0.01-0.098-0.047-0.608-0.159-1.534c-0.005-0.07-0.014-0.178-0.023-0.308c0.926-0.328,1.646-0.599,2.147-0.814
			c0.542-0.229,1.029-0.473,1.468-0.73l-6.318-14.815c-1.165-0.169-2.32-0.234-3.47-0.196L232.909,118.847z M241.663,114.184
			l6.926,16.232c0.58-0.248,1.113-0.538,1.59-0.856l-6.318-14.82c0.977-0.767,2.235-1.487,3.784-2.147
			c3.919-1.665,7.118-1.515,9.62,0.454c-1.997-0.576-3.652-0.842-4.971-0.814c-1.314,0.028-2.759,0.374-4.326,1.043
			c-1.225,0.524-2.244,1.104-3.068,1.735l6.061,14.212l0.304-0.201c3.652-2.408,6.103-4.798,7.352-7.169
			c1.253-2.376,1.351-4.807,0.29-7.3c-0.944-2.226-2.596-3.699-4.948-4.419c-2.347-0.72-4.831-0.519-7.464,0.603
			C244.385,111.635,242.781,112.786,241.663,114.184z M263.919,126.053c3.021,3.596,6.987,6.683,11.888,9.269
			c3.054,1.613,6.542,2.75,10.452,3.405c-4.078,3.189-7.594,6.893-10.559,11.12l-0.192,0.299l-0.809-0.224
			c2.768-4.144,6.061-7.735,9.895-10.766c-7.431-1.394-14.6-5.612-21.526-12.673l-0.397-0.435c5.144-4.948,6.701-9.811,4.662-14.591
			c-0.832-1.969-2.544-3.774-5.121-5.429c2.815,0.987,4.83,2.9,6.047,5.752C270.223,116.396,268.773,121.152,263.919,126.053z"/>
		<path fill="#010101" d="M277.682,101.371c4.354-4.447,9.681-7.352,15.998-8.717c4.588-0.992,8.549-0.767,11.897,0.664
			c3.344,1.431,5.373,3.779,6.075,7.043c0.944,4.349-0.945,7.805-5.663,10.363l0.075,0.355c0.543,0.019,1.197,0.052,1.969,0.113
			c2.245-1.066,3.867-2.6,4.854-4.597c0.982-2.002,1.216-4.209,0.697-6.617c-0.655-3.03-2.488-5.444-5.49-7.254l-0.037-0.192
			l0.411,0.21c3.26,1.548,5.257,4.008,5.986,7.384c0.996,4.648-0.711,8.409-5.134,11.289c2.296,0.505,4.218,1.52,5.761,3.04
			c1.548,1.52,2.563,3.39,3.04,5.607c0.687,3.18,0.084,5.972-1.81,8.376c-1.889,2.409-4.756,4.026-8.6,4.854l-22.906,4.948
			l3.601-4.728l-2.993-13.852c-1.263,0.272-2.703,0.715-4.33,1.333l-0.458-0.87c1.857-0.603,3.395-1.033,4.611-1.3l-0.365-1.693
			l-0.805,0.173c-1.192,0.257-2.675,0.669-4.452,1.23l0.744-3.377l0.519-0.079c0.842-0.117,1.483-0.22,1.904-0.309
			c0.641-0.14,1.145-0.22,1.524-0.229l-2.596-12.033L277.682,101.371z M315.725,112.842c2.665,1.281,4.382,3.722,5.163,7.323
			c0.785,3.629,0.159,6.903-1.861,9.816c-1.978,2.839-5.369,4.775-10.167,5.813l-21.76,4.7l-0.734-0.748l20.198-4.359
			c4.387-0.954,7.464-2.086,9.208-3.4c3.877-2.932,5.275-6.888,4.204-11.859c-0.599-2.773-2.123-5.074-4.574-6.912L315.725,112.842z
			 M287.591,98.723l3.115,14.432c0.229-0.07,0.388-0.117,0.472-0.136l0.585-0.089c0.084-0.019,0.266-0.061,0.547-0.121
			l-2.834-13.085c1.651-1.253,3.353-2.062,5.102-2.441c2.006-0.431,3.667-0.412,4.986,0.061c1.323,0.477,2.581,1.501,3.764,3.072
			l-1.006-0.318c-2.128-2.067-4.667-2.778-7.627-2.137c-1.665,0.36-3.059,1.15-4.176,2.376l2.652,12.29l1.347-0.295
			c4.073-0.879,6.959-2.212,8.666-3.993c1.698-1.787,2.245-4.078,1.646-6.87c-0.529-2.455-1.787-4.256-3.769-5.401
			c-1.973-1.151-4.303-1.431-6.996-0.851C291.697,95.73,289.537,96.895,287.591,98.723z M291.276,115.779l3.807,17.63l1.599-0.346
			l-3.395-15.708c1.492-0.431,2.567-0.725,3.227-0.865c3.545-0.762,6.183-0.986,7.913-0.669c1.73,0.318,3.264,1.304,4.606,2.955
			l-0.384,0.084c-1.361-1.244-2.895-1.983-4.592-2.207c-1.702-0.225-4.078-0.005-7.131,0.655l-2.609,0.627l3.232,14.946l1.019-0.225
			l4.606-1.16c5.925-1.726,8.301-5.299,7.131-10.719c-0.734-3.39-2.226-5.499-4.475-6.313c-2.254-0.823-6.103-0.646-11.547,0.533
			C293.75,115.11,292.749,115.372,291.276,115.779z"/>
		<path fill="#010101" d="M361.017,86.729l-0.51,0.636c-2.16,2.773-3.858,5.949-5.088,9.512c-0.234-0.5-0.402-0.865-0.519-1.104
			c-1.258-2.591-2.586-4.251-3.97-4.985c-1.398-0.734-3.872-1.062-7.422-0.982c-1.637,0.038-3.601,0.136-5.888,0.295l0.332,15.053
			l2.09-0.046l-0.295-13.319c1.66-0.187,3.236-0.304,4.747-0.337c2.768-0.061,4.817,0.192,6.135,0.748
			c1.324,0.561,2.516,1.679,3.583,3.363c-0.314-0.215-0.534-0.374-0.669-0.477c-1.801-1.361-3.096-2.161-3.881-2.404
			c-0.795-0.243-2.343-0.341-4.658-0.29c-0.702,0.014-1.945,0.084-3.732,0.215l-0.683,0.047l0.272,12.434l6.023-0.136l4.097-5.883
			l0.313,14.104l-4.344-5.369l-8.932,0.196l0.402,18.36l2.1-0.046l-0.379-16.821l7.104-0.159l0.87,0.832l-7.131,0.159l0.351,15.97
			c4.457-0.099,7.609-0.487,9.475-1.16c1.861-0.674,3.307-1.95,4.335-3.83l1.669-3.016c0.061-0.131,0.182-0.374,0.374-0.73
			c0.617,2.39,1.365,4.293,2.24,5.715c0.87,1.422,2.301,3.068,4.288,4.948l-36.692,0.814l4.892-3.905l-0.327-14.596
			c-1.829,0.258-3.47,0.861-4.939,1.814l-0.472-0.682c1.309-0.987,3.105-1.651,5.392-1.983l-0.033-1.539
			c-0.374-0.037-0.636-0.051-0.785-0.051c-2.231,0.051-4.242,0.917-6.038,2.591c0.93-3.507,3.185-5.308,6.757-5.387l-0.313-13.974
			l-5.06-3.816L361.017,86.729z M367.447,128.335l-1.641,2.984l-35.733,0.795l-0.543-0.87l35.836-0.8l1.066-2.086
			c-3.208-2.829-5.49-5.883-6.851-9.147l1.057,0.369c1.262,2.768,3.353,5.514,6.271,8.24L367.447,128.335z M353.259,100.099
			l0.327,14.469l-0.828-0.411l-0.328-14.464L353.259,100.099z M362.645,88.987l-0.225,0.299c-2.586,3.638-4.293,6.678-5.134,9.119
			l-0.575-0.678c1.389-3.409,3.208-6.551,5.462-9.419L362.645,88.987z"/>
		<path fill="#010101" d="M375.075,91.438c5.602-2.086,11.331-2.638,17.21-1.651c4.559,0.772,8.156,2.394,10.784,4.873
			c2.624,2.479,3.681,5.242,3.166,8.301c-0.421,2.497-1.758,4.545-4.022,6.145c-2.263,1.599-5.144,2.544-8.647,2.844
			c0.795,4.34,2.147,8.661,4.041,12.963c1.904,4.302,3.952,7.702,6.168,10.2l-0.51,0.079c-3.39,0.556-6.795,1.581-10.209,3.063
			l-0.538,0.238l0.014-1.057c0.023-8.563-0.715-15.947-2.217-22.152l-0.07-0.341c-1.604,0.435-3.685,0.65-6.253,0.641l-0.262-0.014
			l-2.039,12.075l4.662,7.024l-16.686-2.811l-0.374-0.959l15.367,2.591l-3.844-5.761l2.193-13.01l0.697,0.019
			c2.493,0.154,4.63,0.019,6.403-0.416c-0.084-0.276-0.131-0.453-0.145-0.524l-0.159-0.986c-0.01-0.07-0.047-0.206-0.098-0.417
			c-1.398,0.164-3.994,0.159-7.768-0.014l-0.365,0.005l-2.422,14.399l3.03,4.462l-14.263-2.404l4.845-3.133l1.819-10.849
			l-0.262-0.01c-1.3,0.07-2.479,0.192-3.549,0.365l-0.276,0.051l-0.182-0.692c1.01-0.206,1.796-0.332,2.357-0.369l1.781-0.126
			l0.272-0.023l0.281-1.679c-1.272-0.215-2.9-0.201-4.887,0.042l-0.379,0.066c0.098-0.295,0.43-0.954,1-1.992
			c0.057-0.075,0.29-0.533,0.692-1.375c0.037-0.057,0.084-0.15,0.154-0.272c0.954,0.225,1.702,0.384,2.24,0.477
			c0.58,0.098,1.127,0.155,1.627,0.173l2.675-15.881c-0.888-0.767-1.819-1.445-2.806-2.034L375.075,91.438z M384.97,92.242
			l-2.932,17.397c0.622,0.108,1.225,0.155,1.801,0.14l2.675-15.881c1.239-0.126,2.684-0.046,4.344,0.234
			c4.195,0.706,6.818,2.562,7.856,5.569c-1.37-1.557-2.623-2.679-3.746-3.372c-1.127-0.682-2.525-1.169-4.204-1.45
			c-1.31-0.225-2.488-0.29-3.517-0.196l-2.572,15.236l0.374-0.004c4.368-0.061,7.721-0.753,10.055-2.072
			c2.338-1.323,3.728-3.32,4.181-5.986c0.402-2.39-0.192-4.517-1.777-6.393c-1.59-1.87-3.793-3.045-6.618-3.522
			C388.632,91.564,386.659,91.662,384.97,92.242z M397.297,114.236c0.608,4.662,2.277,9.405,5.009,14.221
			c1.707,3.007,4.027,5.846,6.968,8.512c-5.154,0.482-10.115,1.702-14.895,3.666l-0.323,0.145l-0.561-0.627
			c4.564-1.997,9.278-3.241,14.142-3.727c-5.504-5.172-9.269-12.603-11.289-22.283l-0.098-0.58
			c7.005-1.389,10.938-4.644,11.803-9.765c0.356-2.109-0.107-4.555-1.389-7.337c1.838,2.347,2.506,5.046,1.987,8.1
			C407.82,109.513,404.032,112.734,397.297,114.236z"/>
		<path fill="#010101" d="M469.265,115.634c-1.665,0.921-3.152,2.002-4.443,3.236c-2.562,2.437-4.195,3.905-4.896,4.396
			l-0.229,0.117c0.019-0.258,0.033-0.454,0.052-0.589c0.248-2.039,0.355-3.493,0.308-4.349s-0.281-1.768-0.711-2.726
			c-1.08-2.427-2.778-4.162-5.084-5.205c-2.132-0.959-4.167-1.165-6.117-0.622c-1.945,0.547-3.32,1.716-4.125,3.507
			c-1.511,3.344-0.023,6.753,4.461,10.237l4.49,3.498c6.398,4.971,8.282,10.382,5.644,16.232c-1.478,3.264-3.937,5.448-7.393,6.557
			c-3.461,1.113-6.996,0.851-10.62-0.786c-2.268-1.024-4.644-2.516-7.131-4.48l-3.105-2.441c-1.258-0.973-2.347-1.665-3.26-2.081
			c-1.22-0.547-2.647-0.725-4.288-0.533l-0.051-0.524c4.148-2.605,7.473-5.369,9.985-8.282l0.477,0.393
			c-0.996,3.311-0.837,6.304,0.472,8.979c1.305,2.671,3.652,4.77,7.034,6.295c2.661,1.206,5.055,1.543,7.192,1.02
			c2.123-0.524,3.662-1.829,4.606-3.919c1.08-2.403,0.889-4.892-0.594-7.449c-1.071-1.819-3.821-4.307-8.263-7.464
			c-3.433-2.432-5.602-4.887-6.524-7.361c-0.917-2.474-0.687-5.233,0.688-8.273c1.417-3.142,3.69-5.186,6.832-6.126
			c3.143-0.94,6.529-0.594,10.148,1.038c2.329,1.052,4.854,2.694,7.581,4.929c1.272,1.052,2.254,1.74,2.951,2.053
			c0.977,0.44,2.193,0.58,3.652,0.426L469.265,115.634z M460.674,134.667c1.777,3.269,1.866,6.687,0.257,10.246
			c-1.711,3.802-4.634,6.355-8.768,7.66c-4.134,1.309-8.31,1.01-12.528-0.894c-2.147-0.968-3.989-2.062-5.519-3.283l-4.251-3.321
			c-0.991-0.776-2.123-1.459-3.39-2.029c-1.132-0.514-2.282-0.758-3.446-0.729l0.037-1.029c1.248-0.009,2.404,0.229,3.484,0.711
			c1.193,0.542,2.474,1.333,3.844,2.385l4.096,3.18c1.628,1.258,3.461,2.347,5.49,3.264c3.98,1.796,7.941,2.058,11.883,0.786
			c3.933-1.281,6.715-3.718,8.338-7.319c1.38-3.039,1.506-6.191,0.393-9.451L460.674,134.667z M435.547,133.676
			c-0.879,3.91-0.046,7.337,2.479,10.269l-0.107,0.243c-3.218-2.745-4.298-6.323-3.241-10.728L435.547,133.676z M436.183,122.326
			l0.758,1.024c0.126,1.469,1.604,3.311,4.438,5.523l4.265,3.358c2.895,2.291,4.751,3.97,5.575,5.046
			c0.814,1.076,1.183,2.32,1.109,3.718l-0.267,0.023c-0.426-1.44-1.062-2.633-1.889-3.582c-0.828-0.949-2.563-2.441-5.214-4.471
			c-3.844-2.936-6.346-5.097-7.487-6.486C436.323,125.09,435.898,123.705,436.183,122.326z M459.154,119.726
			c-1.136-3.316-2.96-5.537-5.467-6.669c-1.515-0.683-2.956-0.809-4.349-0.384c-1.394,0.426-2.39,1.319-3.002,2.666
			c-0.664,1.473-0.341,3.437,0.968,5.897l0.178,0.257l-0.262,0.173c-2.095-2.357-2.642-4.653-1.637-6.884
			c0.697-1.548,1.824-2.563,3.376-3.035c1.557-0.473,3.231-0.304,5.018,0.505c1.711,0.772,3.049,1.81,3.998,3.115
			c0.959,1.31,1.44,2.75,1.445,4.335L459.154,119.726z M470.55,117.719l-0.472,0.328c-1.44,1.001-2.727,2.002-3.867,2.993
			c-2.712,2.296-4.232,3.573-4.565,3.835l-0.243,0.14l-0.58-0.627l0.234-0.215c1.174-1.052,2.782-2.385,4.826-3.999l3.802-3.026
			l0.257-0.169L470.55,117.719z"/>
		<path fill="#010101" d="M481.503,121.395l12.748,8.619l-6.131,1.113l-7.922,11.715c0.364,0.351,0.814,0.739,1.356,1.151
			l7.847-11.603l4.934-0.93l0.215,0.856l-4.662,0.874l-7.651,11.308l0.837,0.688c1.31,1.066,2.614,2.044,3.914,2.923
			c1.885,1.272,3.564,2.273,5.037,3.012l8.441-12.477l-1.258-5.271l12.528,8.469l-6.182,1.08l-19.108,28.251l1.3,5.148
			l-12.472-8.432l5.855-0.664l7.782-11.495c-1.763-0.669-3.451-1.543-5.055-2.633c-1.524-1.024-3.039-2.17-4.555-3.437l-0.36-0.281
			l-7.758,11.471l0.986,8.174l-14.016-9.479l-0.21-1.206l13.23,8.946l-0.954-6.533l8.436-12.472l0.748,0.584
			c2.268,1.796,3.929,3.054,4.999,3.774c1.735,1.174,3.404,1.96,4.999,2.357l0.664-0.977c-1.87-0.893-3.938-2.104-6.196-3.634
			c-1.212-0.823-2.076-1.445-2.605-1.884l-2.572-2.095c-0.093-0.089-0.294-0.248-0.585-0.473l-9.096,13.45l1.487,5.275
			l-12.524-8.474l5.776-0.711l8.015-11.855c-1.52-1.024-3.133-1.248-4.845-0.664l-0.388-0.659c1.941-0.613,3.84-0.393,5.691,0.65
			l0.678-1.005c-2.029-1.371-4.138-1.684-6.36-0.94l-0.215-0.547c2.82-1.884,5.593-2.244,8.315-1.089l8.254-12.201L481.503,121.395z
			 M511.849,144.133l-4.583,0.814l-18.706,27.657l1.019,8.198l-14.076-9.517l-0.178-1.192l13.202,8.932l-0.861-6.552l19.104-28.256
			l5.027-0.944L511.849,144.133z"/>
		<path fill="#010101" d="M540.572,170.466c1.155,3.269,1.08,6.832-0.206,10.695c-1.291,3.863-3.619,7.482-6.991,10.868
			c-4.957,4.981-10.228,7.744-15.802,8.287c-5.579,0.543-10.424-1.23-14.535-5.327c-2.633-2.619-4.204-5.958-4.728-10.012
			l0.117-0.117c0.524,3.316,2.226,6.412,5.116,9.293c3.876,3.867,8.521,5.574,13.922,5.135c5.396-0.444,10.359-2.936,14.894-7.482
			c3.367-3.39,5.752-6.916,7.137-10.587c1.394-3.666,1.665-7.164,0.823-10.494L540.572,170.466z M534.357,161.917
			c3.755,3.741,5.341,8.151,4.756,13.239c-0.58,5.088-3.245,10.008-7.988,14.773c-4.48,4.504-9.166,6.982-14.048,7.45
			c-4.882,0.463-9.199-1.169-12.935-4.892c-2.96-2.946-4.644-6.505-5.069-10.681c-0.617-6.159,1.791-11.963,7.23-17.425
			c4.653-4.672,9.508-7.225,14.572-7.67C525.93,156.268,530.424,158.003,534.357,161.917z M532.369,163.909
			c-5.228-5.205-12.416-3.212-21.568,5.972c-8.451,8.493-10.101,15.297-4.952,20.427c2.399,2.385,5.345,3.077,8.834,2.076
			c3.493-1.005,7.394-3.671,11.71-8.002c4.878-4.901,7.679-8.918,8.399-12.051C535.521,169.058,534.722,166.253,532.369,163.909z
			 M533.866,172.332l-0.164-0.626c-0.669-2.296-1.623-4.059-2.857-5.294c-4.069-4.05-10.078-2.076-18.042,5.92
			c-5.823,5.846-8.418,10.972-7.791,15.386l-0.44,0.023c-0.453-2.638-0.122-5.177,1.001-7.618c1.122-2.441,3.199-5.181,6.229-8.231
			c8.548-8.581,15.077-10.625,19.595-6.126C533.454,167.81,534.277,169.998,533.866,172.332z"/>
		<path fill="#010101" d="M570.829,213.579c0.216,1.469-0.126,3.003-1.024,4.602c-0.898,1.604-2.198,3.002-3.928,4.19
			c-3.896,2.694-7.735,3.124-11.528,1.286c-2.862-1.384-6.206-4.831-10.017-10.34c-0.636-0.917-1.15-1.702-1.548-2.357
			l-11.121,7.693l-2.081,7.688l-9.33-13.492l0.22-1.225l8.773,12.683l1.604-6.201l12.145-8.399c0.982,1.623,2.091,3.311,3.307,5.069
			c3.198,4.635,6.397,7.506,9.582,8.619c3.185,1.118,6.458,0.505,9.835-1.828c1.407-0.968,2.474-2.02,3.208-3.171
			C569.66,217.255,570.291,215.646,570.829,213.579z M555.85,185.768l8.357,12.089c3.554,5.135,5.369,9.273,5.453,12.43
			c0.136,3.994-1.38,7.08-4.536,9.264c-1.922,1.328-3.956,1.955-6.108,1.875c-2.151-0.079-4.195-0.851-6.14-2.32
			c-1.941-1.463-4.349-4.274-7.216-8.418l-2.291-3.316l-13.034,9.012l-0.688,5.336l-8.661-12.524l5.738,1.566l10.798-7.468
			c-0.131-0.229-0.229-0.388-0.29-0.477c-0.898-1.291-2.025-2.334-3.4-3.138l0.313-0.575c1.51,0.729,2.6,1.571,3.26,2.52
			l0.669,0.973l0.178,0.196l1.319-0.917c-0.234-0.449-0.397-0.744-0.5-0.889c-1.324-1.917-2.853-3.128-4.583-3.634l0.22-0.552
			c2.764-0.295,4.99,0.771,6.664,3.194l0.294,0.43l13.193-9.124L555.85,185.768z M559.147,196.463l-13.487,9.329l0.238,0.351
			l0.454,0.715c0.052,0.07,0.145,0.182,0.271,0.332l12.009-8.305l2.048,2.965c1.586,2.296,2.506,4.055,2.754,5.275
			c0.248,1.225-0.033,2.609-0.851,4.153c0.458-1.296,0.528-2.573,0.205-3.821c-0.322-1.253-1.108-2.787-2.361-4.597l-1.917-2.773
			l-11.364,7.857c2.455,3.554,4.78,5.803,6.973,6.744c2.184,0.94,4.396,0.641,6.617-0.903c2.497-1.721,3.797-3.718,3.9-5.981
			c0.107-2.259-0.973-5.037-3.246-8.32C560.812,198.642,560.064,197.632,559.147,196.463z"/>
	</g>
	<g>
		<path fill-rule="evenodd" clip-rule="evenodd" d="M353.52,361.693c2.928-4.541,5.556-10.054,10.233-12.514
			c28.077-14.773,44.029,22.134,49.412,37.043c10.592,23.635,44.67,37.613,48.907,9.325c5.107,51.755-98.576,26.077-109.407-12.43
			c-1.884,11.972-9.802,24.121-27.025,33.133c-29.476,15.451-88.671,14.1-86.231-20.703c5.565,25.534,39.086,16.237,50.188-8.291
			c9.269-15.086,24.524-48.248,51.489-37.277C345.898,351.938,350.322,356.643,353.52,361.693z"/>
	</g>
	<g>
		<path fill-rule="evenodd" clip-rule="evenodd" d="M425.684,291.284c0.379,8.319,0.374,15.924-5.042,18.458
			c-3.447,12.65-8.81,24.636-23.368,26.207c-19.431,2.114-37.529-9.779-35.748-30.982c-2.217-3.311-8.871-2.53-12.398-0.959
			c-1.506,8.689-2.221,14.656-5.714,20.029c-9.18,14.077-38.067,16.976-48.159,2.385c-1.693-2.45-3.236-5.673-4.284-8.581
			c-1.057-2.923-0.692-7.108-2.39-10.494c-0.935-1.89-4.026-2.848-4.77-5.71c-0.818-3.208,0.814-8.366,1.057-12.042
			c23.481-3.044,39.998-3.671,56.16,2.97c2.348,0.982,4.7,3.446,7.146,3.82c1.861,0.281,4.695-0.986,7.151-0.949
			c2.965,0.042,5.897,1.58,7.628,1.421c4.181-0.374,8.698-4.078,13.347-5.233C392.097,287.664,407.258,289.1,425.684,291.284z
			 M295.948,299.884c-2.951,8.366-0.061,24.336,6.463,28.915c10.849,7.646,31.328,3.269,37.188-5.233
			c2.132-3.115,6.29-11.836,3.816-19.557c-2.956-9.161-17.195-11.027-30.065-11.027
			C306.985,292.982,297.379,295.843,295.948,299.884z M371.053,300.202c-5.284,5.836-3.755,18.86,0.954,24.313
			c7.997,9.236,27.559,12.388,37.188,3.334c5.233-4.924,10.27-19.964,5.224-27.965c-2.871-4.518-15.802-6.29-26.23-5.472
			C380.027,295.044,374.569,296.316,371.053,300.202z"/>
	</g>
	<g>
		<path fill="#010101" d="M346.01,541.094c-101.878,0-184.764-82.882-184.764-184.76S244.132,171.57,346.01,171.57
			c101.873,0,184.755,82.887,184.755,184.764S447.883,541.094,346.01,541.094z M346.01,175.161
			c-99.9,0-181.173,81.273-181.173,181.173c0,99.895,81.273,181.168,181.173,181.168c99.895,0,181.163-81.273,181.163-181.168
			C527.174,256.434,445.905,175.161,346.01,175.161z"/>
	</g>
	<g>
		<g>
			<polygon fill="#FFFFFF" points="606.805,314.774 611.959,325.203 623.472,326.877 615.139,335 617.103,346.462 606.805,341.047 
				596.517,346.462 598.481,335 590.157,326.877 601.661,325.203 			"/>
		</g>
	</g>
	<g>
		<g>
			<g>
				<g>
					<path fill="#010101" d="M469.821,571.36c-2.418-4.541-6.599-8.301-11.776-10.592c-3.316-1.45-6.879-2.221-10.321-2.221
						c-6.224,0-11.537,2.488-14.666,6.608l-0.023-0.08l-58.966-35.943l67.851-57.133l-80.805,49.23l-77.752-47.373l65.28,54.968
						l-55.646,33.928c-3.096-4.298-8.516-6.88-14.876-6.88c-3.442,0-7.01,0.772-10.321,2.231
						c-5.181,2.282-9.372,6.037-11.785,10.578c-2.488,4.677-2.811,9.615-0.921,13.931c-5.462,3.171-10.354,4.256-14.525,3.147
						c-5.2-1.379-7.59-5.77-7.627-5.827l-1.646,0.884l-1.66,0.865c0.126,0.238,3.115,5.836,9.905,7.669
						c1.412,0.388,2.876,0.571,4.382,0.571c4.059,0,8.465-1.393,13.155-4.125c3.152,3.919,8.413,6.243,14.385,6.243
						c3.437,0,7.01-0.772,10.321-2.231c5.191-2.291,9.362-6.037,11.78-10.578c2.245-4.237,2.712-8.671,1.389-12.683l43.141-18.79
						l14.969-0.93l8.474-7.146l10.699,9.021l14.956,0.921l43.865,19.122c-1.524,4.125-1.122,8.759,1.225,13.16
						c2.408,4.55,6.594,8.296,11.776,10.578c3.316,1.469,6.879,2.231,10.316,2.231c7.529,0,13.805-3.606,16.363-9.414
						C472.636,580.999,472.314,576.041,469.821,571.36z M290.257,577.477c-2.025,3.783-5.565,6.959-9.98,8.904
						c-2.843,1.258-5.897,1.908-8.815,1.908c-5.21,0-9.704-2.076-12.042-5.561c-0.346-0.505-0.645-1.047-0.898-1.604
						c-1.421-3.25-1.141-7.034,0.795-10.686c2.02-3.811,5.565-6.968,9.989-8.927c2.844-1.244,5.888-1.908,8.815-1.908
						c6.019,0,10.976,2.755,12.926,7.179c0.061,0.121,0.089,0.234,0.14,0.346l-0.337,1.216l0.664-0.299
						C292.38,570.991,291.954,574.279,290.257,577.477z M361.241,533.869c-2.001,0-3.652-1.632-3.652-3.648
						c0-2.02,1.651-3.648,3.652-3.648c2.016,0,3.652,1.627,3.652,3.648C364.894,532.237,363.257,533.869,361.241,533.869z
						 M467.305,583.8c-1.946,4.429-6.893,7.174-12.931,7.174c-2.914,0-5.967-0.659-8.806-1.908
						c-4.419-1.955-7.959-5.107-9.984-8.918c-1.95-3.643-2.221-7.445-0.8-10.686c1.945-4.424,6.916-7.164,12.94-7.164
						c2.923,0,5.967,0.65,8.815,1.913c4.41,1.932,7.959,5.107,9.98,8.904C468.465,576.771,468.746,580.554,467.305,583.8z"/>
				</g>
			</g>
		</g>
	</g>
</g>
</svg>
